<svg width="13" height="14" viewBox="0 0 13 14" fill="none" xmlns="http://www.w3.org/2000/svg">
<path d="M12.605 8.04424L12.147 7.77979C12.2239 7.39722 12.2628 7.01413 12.2628 6.63902C12.2628 6.25845 12.2245 5.875 12.1489 5.49711L12.605 5.23378C12.7462 5.15225 12.8473 5.02056 12.8895 4.86301C12.9317 4.70547 12.91 4.54091 12.8285 4.39966L11.5812 2.23934C11.4996 2.09809 11.368 1.99703 11.2104 1.95484C11.0529 1.91264 10.8883 1.93428 10.747 2.01585L10.2906 2.27938C9.71404 1.77214 9.03548 1.37957 8.31316 1.13531V0.610634C8.31316 0.273928 8.03924 0 7.70253 0H5.20802C4.87132 0 4.59739 0.273928 4.59739 0.610634V1.13534C3.87892 1.3786 3.2013 1.7717 2.6226 2.28094L2.16348 2.01585C2.0222 1.93428 1.85764 1.91261 1.7001 1.95484C1.54256 1.99706 1.41089 2.09809 1.32933 2.23934L0.0820743 4.39966C0.000509156 4.54091 -0.0211359 4.70547 0.0210629 4.86301C0.0632616 5.02056 0.164315 5.15225 0.305566 5.23378L0.763568 5.49823C0.686706 5.8808 0.647755 6.26389 0.647755 6.63902C0.647755 7.01954 0.686056 7.40299 0.761671 7.78091L0.305592 8.04424C0.0139951 8.21259 -0.0862529 8.58676 0.0820743 8.87839L1.32933 11.0387C1.49768 11.3303 1.87186 11.4306 2.16348 11.2622L2.6199 10.9987C3.19649 11.5059 3.87502 11.8985 4.59739 12.1428V12.6674C4.59739 13.0041 4.87132 13.278 5.20802 13.278H7.70253C8.03924 13.278 8.31316 13.0041 8.31316 12.6674V12.1427C9.03166 11.8994 9.70928 11.5063 10.288 10.9971L10.7471 11.2622C11.0386 11.4306 11.4129 11.3303 11.5812 11.0387L12.8285 8.87839C12.9968 8.58676 12.8966 8.21259 12.605 8.04424ZM12.4909 8.6835L11.2437 10.8438C11.1828 10.9493 11.0474 10.9855 10.942 10.9246L10.3601 10.5887C10.2862 10.546 10.193 10.5564 10.1304 10.6144C9.5355 11.1646 8.81978 11.5797 8.06062 11.8149C7.97903 11.8401 7.9234 11.9156 7.9234 12.001V12.6674C7.9234 12.7892 7.82432 12.8883 7.70253 12.8883H5.20802C5.08623 12.8883 4.98716 12.7892 4.98716 12.6674V12.001C4.98716 11.9156 4.93152 11.8402 4.84996 11.8149C4.08612 11.5782 3.36952 11.1637 2.77757 10.616C2.74065 10.5818 2.69312 10.5642 2.64518 10.5642C2.61176 10.5642 2.57817 10.5727 2.54779 10.5903L1.9686 10.9246C1.8631 10.9855 1.72777 10.9493 1.66689 10.8438L0.419638 8.6835C0.358757 8.57803 0.395031 8.44268 0.500476 8.38177L1.0792 8.04764C1.1531 8.00497 1.19065 7.91922 1.17186 7.83597C1.08271 7.44082 1.03752 7.03809 1.03752 6.63902C1.03752 6.24666 1.08338 5.84432 1.17386 5.44317C1.19262 5.35994 1.15508 5.27416 1.0812 5.23152L0.500476 4.89625C0.44939 4.86675 0.412856 4.81913 0.397577 4.76214C0.382324 4.70516 0.390146 4.64563 0.419638 4.59454L1.66689 2.43422C1.69638 2.38314 1.74401 2.34658 1.80102 2.33132C1.85798 2.31604 1.91754 2.32389 1.96862 2.35338L2.55047 2.68931C2.62442 2.73203 2.71755 2.72158 2.78022 2.66361C3.37511 2.11344 4.0908 1.69834 4.84996 1.46316C4.93155 1.43787 4.98718 1.36242 4.98718 1.27701V0.610634C4.98718 0.488845 5.08626 0.389767 5.20805 0.389767H7.70256C7.82434 0.389767 7.92342 0.488845 7.92342 0.610634V1.27701C7.92342 1.36242 7.97906 1.43787 8.06062 1.46316C8.82443 1.69977 9.54103 2.11435 10.133 2.66205C10.1957 2.72005 10.2888 2.73047 10.3628 2.68778L10.942 2.35338C10.9931 2.32389 11.0526 2.31604 11.1096 2.33132C11.1666 2.3466 11.2142 2.38314 11.2437 2.43422L12.491 4.59454C12.5205 4.64563 12.5283 4.70516 12.513 4.76214C12.4977 4.81913 12.4612 4.86675 12.4101 4.89625L11.8314 5.23038C11.7575 5.27305 11.72 5.35882 11.7387 5.44205C11.8279 5.83717 11.8731 6.23988 11.8731 6.63902C11.8731 7.03139 11.8272 7.43373 11.7367 7.83485C11.718 7.91808 11.7555 8.00383 11.8294 8.0465L12.4101 8.38177C12.5155 8.44268 12.5518 8.57803 12.4909 8.6835Z" fill="#73F2A8"/>
<path d="M6.45544 2.70239C4.28475 2.70239 2.5188 4.46837 2.5188 6.63903C2.5188 8.8097 4.28475 10.5757 6.45544 10.5757C8.62613 10.5757 10.3921 8.8097 10.3921 6.63903C10.3921 4.46837 8.62613 2.70239 6.45544 2.70239ZM6.45544 10.1859C4.4997 10.1859 2.90857 8.59478 2.90857 6.63903C2.90857 4.68329 4.4997 3.09216 6.45544 3.09216C8.41119 3.09216 10.0023 4.68329 10.0023 6.63903C10.0023 8.59478 8.41119 10.1859 6.45544 10.1859Z" fill="#73F2A8"/>
<path d="M7.18295 5.61267H6.45538C6.34775 5.61267 6.2605 5.69993 6.2605 5.80755V7.47056C6.2605 7.57819 6.34775 7.66544 6.45538 7.66544C6.56301 7.66544 6.65026 7.57819 6.65026 7.47056V7.04181H7.18295C7.57697 7.04181 7.89752 6.72127 7.89752 6.32724C7.89752 5.93321 7.57697 5.61267 7.18295 5.61267ZM7.18295 6.65205H6.65026V6.00244H7.18295C7.36206 6.00244 7.50775 6.14813 7.50775 6.32724C7.50775 6.50635 7.36206 6.65205 7.18295 6.65205Z" fill="#73F2A8"/>
<path d="M5.39053 5.73914C5.362 5.66308 5.2893 5.61267 5.20807 5.61267H5.0002C4.91897 5.61267 4.84624 5.66305 4.81773 5.73914L4.19411 7.40214C4.1563 7.50291 4.20739 7.61524 4.30815 7.65305C4.40892 7.69085 4.52125 7.63977 4.55906 7.539L4.66752 7.24969H5.54072L5.64921 7.53898C5.67855 7.61721 5.75281 7.66549 5.8317 7.66549C5.85443 7.66549 5.87756 7.66149 5.90009 7.65305C6.00086 7.61527 6.05194 7.50291 6.01414 7.40214L5.39053 5.73914ZM4.81368 6.85992L5.10413 6.08541L5.39459 6.85992H4.81368Z" fill="#73F2A8"/>
<path d="M8.32623 5.61267C8.2186 5.61267 8.13135 5.69993 8.13135 5.80755V7.47056C8.13135 7.57819 8.2186 7.66544 8.32623 7.66544C8.43386 7.66544 8.52111 7.57819 8.52111 7.47056V5.80755C8.52111 5.69993 8.43386 5.61267 8.32623 5.61267Z" fill="#73F2A8"/>
<path d="M7.84939 2.26842C7.98463 2.31153 8.11947 2.3616 8.25009 2.4172C8.27498 2.42781 8.30086 2.43282 8.32633 2.43282C8.4021 2.43282 8.47418 2.38834 8.50573 2.31423C8.54787 2.2152 8.50178 2.10074 8.40275 2.05859C8.26093 1.99823 8.11458 1.94387 7.96772 1.89707C7.86521 1.86439 7.75556 1.92103 7.72287 2.02357C7.6902 2.1261 7.74685 2.23573 7.84939 2.26842Z" fill="#73F2A8"/>
<path d="M2.42655 8.83218C2.375 8.7377 2.25659 8.70288 2.16213 8.75443C2.06766 8.80599 2.03284 8.92437 2.08439 9.01885C2.16525 9.16707 2.25477 9.31287 2.35044 9.45219C2.38823 9.5072 2.44921 9.53677 2.51126 9.53677C2.54928 9.53677 2.58768 9.52568 2.62141 9.50253C2.71015 9.44159 2.73267 9.32027 2.67174 9.23156C2.58358 9.10314 2.50108 8.96878 2.42655 8.83218Z" fill="#73F2A8"/>
<path d="M6.05617 11.2081C5.01188 11.1181 4.02062 10.6656 3.26502 9.93379C3.18769 9.85891 3.06432 9.86091 2.98946 9.93821C2.9146 10.0155 2.91655 10.1389 2.99388 10.2138C3.81368 11.0077 4.88936 11.4988 6.0227 11.5964C6.02839 11.5969 6.03403 11.5971 6.03964 11.5971C6.13971 11.5971 6.22483 11.5205 6.23359 11.419C6.24281 11.3118 6.16338 11.2173 6.05617 11.2081Z" fill="#73F2A8"/>
<path d="M9.25969 2.5279C9.17083 2.46717 9.04956 2.48998 8.98883 2.57883C8.92811 2.66769 8.95092 2.78896 9.03976 2.84969C9.94516 3.46845 10.6001 4.38921 10.8839 5.44231C10.9074 5.52925 10.986 5.58652 11.072 5.58652C11.0888 5.58652 11.1058 5.58434 11.1228 5.57977C11.2267 5.55176 11.2883 5.4448 11.2603 5.34089C10.9523 4.1981 10.2418 3.1991 9.25969 2.5279Z" fill="#73F2A8"/>
</svg>
