<svg xmlns="http://www.w3.org/2000/svg" viewBox="0 0 696.74 466.13"><defs><style>.cls-1{fill:none;stroke:#000;stroke-miterlimit:10;stroke-width:7px;}</style></defs><g id="Camada_2" data-name="Camada 2"><g id="Camada_1-2" data-name="Camada 1"><polyline class="cls-1" points="302.46 45.24 693.24 45.24 693.24 3.5 302.46 3.5 3.5 3.5 3.5 45.24"/><polyline class="cls-1" points="302.46 45.24 693.24 45.24 693.24 86.98 302.46 86.98"/><line class="cls-1" x1="3.5" y1="86.98" x2="3.5" y2="45.24"/><polyline class="cls-1" points="302.46 86.98 693.24 86.98 693.24 128.72 302.46 128.72"/><line class="cls-1" x1="3.5" y1="128.72" x2="3.5" y2="86.98"/><polyline class="cls-1" points="302.46 128.72 693.24 128.72 693.24 170.46 302.46 170.46"/><line class="cls-1" x1="3.5" y1="170.46" x2="3.5" y2="128.72"/><polyline class="cls-1" points="3.5 170.46 3.5 212.19 302.46 212.19 693.24 212.19 693.24 170.46 302.46 170.46"/><rect class="cls-1" x="3.5" y="212.2" width="689.74" height="41.74"/><rect class="cls-1" x="3.5" y="253.93" width="689.74" height="41.74"/><rect class="cls-1" x="3.5" y="295.67" width="689.74" height="41.74"/><rect class="cls-1" x="3.5" y="337.41" width="689.74" height="41.74"/><rect class="cls-1" x="3.5" y="379.15" width="689.74" height="41.74"/><rect class="cls-1" x="3.5" y="420.89" width="689.74" height="41.74"/><rect class="cls-1" x="3.5" y="3.5" width="298.96" height="208.7"/><polygon points="23.07 11.45 25.72 19.6 34.29 19.6 27.35 24.64 30 32.79 23.07 27.75 16.14 32.79 18.78 24.64 11.85 19.6 20.42 19.6 23.07 11.45"/><polygon points="44.95 32.49 47.6 40.65 56.17 40.65 49.23 45.68 51.88 53.83 44.95 48.8 38.02 53.83 40.66 45.68 33.73 40.65 42.3 40.65 44.95 32.49"/><polygon points="88.03 32.49 90.67 40.65 99.24 40.65 92.31 45.68 94.96 53.83 88.03 48.8 81.09 53.83 83.74 45.68 76.81 40.65 85.38 40.65 88.03 32.49"/><polygon points="131.1 32.49 133.75 40.65 142.32 40.65 135.39 45.68 138.03 53.83 131.1 48.8 124.17 53.83 126.82 45.68 119.88 40.65 128.45 40.65 131.1 32.49"/><polygon points="174.18 32.49 176.82 40.65 185.4 40.65 178.46 45.68 181.11 53.83 174.18 48.8 167.25 53.83 169.89 45.68 162.96 40.65 171.53 40.65 174.18 32.49"/><polygon points="217.25 32.49 219.9 40.65 228.47 40.65 221.54 45.68 224.19 53.83 217.25 48.8 210.32 53.83 212.97 45.68 206.04 40.65 214.6 40.65 217.25 32.49"/><polygon points="260.33 32.49 262.98 40.65 271.55 40.65 264.61 45.68 267.26 53.83 260.33 48.8 253.4 53.83 256.05 45.68 249.11 40.65 257.68 40.65 260.33 32.49"/><polygon points="44.95 74.06 47.6 82.21 56.17 82.21 49.23 87.25 51.88 95.4 44.95 90.36 38.02 95.4 40.66 87.25 33.73 82.21 42.3 82.21 44.95 74.06"/><polygon points="88.03 74.06 90.67 82.21 99.24 82.21 92.31 87.25 94.96 95.4 88.03 90.36 81.09 95.4 83.74 87.25 76.81 82.21 85.38 82.21 88.03 74.06"/><polygon points="131.1 74.06 133.75 82.21 142.32 82.21 135.39 87.25 138.03 95.4 131.1 90.36 124.17 95.4 126.82 87.25 119.88 82.21 128.45 82.21 131.1 74.06"/><polygon points="174.18 74.06 176.82 82.21 185.4 82.21 178.46 87.25 181.11 95.4 174.18 90.36 167.25 95.4 169.89 87.25 162.96 82.21 171.53 82.21 174.18 74.06"/><polygon points="217.25 74.06 219.9 82.21 228.47 82.21 221.54 87.25 224.19 95.4 217.25 90.36 210.32 95.4 212.97 87.25 206.04 82.21 214.6 82.21 217.25 74.06"/><polygon points="260.33 74.06 262.98 82.21 271.55 82.21 264.61 87.25 267.26 95.4 260.33 90.36 253.4 95.4 256.05 87.25 249.11 82.21 257.68 82.21 260.33 74.06"/><polygon points="44.95 115.63 47.6 123.78 56.17 123.78 49.23 128.81 51.88 136.96 44.95 131.93 38.02 136.96 40.66 128.81 33.73 123.78 42.3 123.78 44.95 115.63"/><polygon points="88.03 115.63 90.67 123.78 99.24 123.78 92.31 128.81 94.96 136.96 88.03 131.93 81.09 136.96 83.74 128.81 76.81 123.78 85.38 123.78 88.03 115.63"/><polygon points="131.1 115.63 133.75 123.78 142.32 123.78 135.39 128.81 138.03 136.96 131.1 131.93 124.17 136.96 126.82 128.81 119.88 123.78 128.45 123.78 131.1 115.63"/><polygon points="174.18 115.63 176.82 123.78 185.4 123.78 178.46 128.81 181.11 136.96 174.18 131.93 167.25 136.96 169.89 128.81 162.96 123.78 171.53 123.78 174.18 115.63"/><polygon points="217.25 115.63 219.9 123.78 228.47 123.78 221.54 128.81 224.19 136.96 217.25 131.93 210.32 136.96 212.97 128.81 206.04 123.78 214.6 123.78 217.25 115.63"/><polygon points="260.33 115.63 262.98 123.78 271.55 123.78 264.61 128.81 267.26 136.96 260.33 131.93 253.4 136.96 256.05 128.81 249.11 123.78 257.68 123.78 260.33 115.63"/><polygon points="44.95 157.19 47.6 165.34 56.17 165.34 49.23 170.38 51.88 178.53 44.95 173.49 38.02 178.53 40.66 170.38 33.73 165.34 42.3 165.34 44.95 157.19"/><polygon points="88.03 157.19 90.67 165.34 99.24 165.34 92.31 170.38 94.96 178.53 88.03 173.49 81.09 178.53 83.74 170.38 76.81 165.34 85.38 165.34 88.03 157.19"/><polygon points="131.1 157.19 133.75 165.34 142.32 165.34 135.39 170.38 138.03 178.53 131.1 173.49 124.17 178.53 126.82 170.38 119.88 165.34 128.45 165.34 131.1 157.19"/><polygon points="174.18 157.19 176.82 165.34 185.4 165.34 178.46 170.38 181.11 178.53 174.18 173.49 167.25 178.53 169.89 170.38 162.96 165.34 171.53 165.34 174.18 157.19"/><polygon points="217.25 157.19 219.9 165.34 228.47 165.34 221.54 170.38 224.19 178.53 217.25 173.49 210.32 178.53 212.97 170.38 206.04 165.34 214.6 165.34 217.25 157.19"/><polygon points="260.33 157.19 262.98 165.34 271.55 165.34 264.61 170.38 267.26 178.53 260.33 173.49 253.4 178.53 256.05 170.38 249.11 165.34 257.68 165.34 260.33 157.19"/><polygon points="66.37 11.45 69.02 19.6 77.59 19.6 70.66 24.64 73.31 32.79 66.37 27.75 59.44 32.79 62.09 24.64 55.16 19.6 63.73 19.6 66.37 11.45"/><polygon points="109.68 11.45 112.33 19.6 120.89 19.6 113.96 24.64 116.61 32.79 109.68 27.75 102.75 32.79 105.39 24.64 98.46 19.6 107.03 19.6 109.68 11.45"/><polygon points="152.98 11.45 155.63 19.6 164.2 19.6 157.27 24.64 159.91 32.79 152.98 27.75 146.05 32.79 148.7 24.64 141.76 19.6 150.33 19.6 152.98 11.45"/><polygon points="196.29 11.45 198.93 19.6 207.5 19.6 200.57 24.64 203.22 32.79 196.29 27.75 189.35 32.79 192 24.64 185.07 19.6 193.64 19.6 196.29 11.45"/><polygon points="239.59 11.45 242.24 19.6 250.81 19.6 243.88 24.64 246.52 32.79 239.59 27.75 232.66 32.79 235.31 24.64 228.37 19.6 236.94 19.6 239.59 11.45"/><polygon points="282.89 11.45 285.54 19.6 294.11 19.6 287.18 24.64 289.83 32.79 282.89 27.75 275.96 32.79 278.61 24.64 271.68 19.6 280.25 19.6 282.89 11.45"/><polygon points="23.07 53.19 25.72 61.34 34.29 61.34 27.35 66.38 30 74.53 23.07 69.49 16.14 74.53 18.78 66.38 11.85 61.34 20.42 61.34 23.07 53.19"/><polygon points="66.37 53.19 69.02 61.34 77.59 61.34 70.66 66.38 73.31 74.53 66.37 69.49 59.44 74.53 62.09 66.38 55.16 61.34 63.73 61.34 66.37 53.19"/><polygon points="109.68 53.19 112.33 61.34 120.89 61.34 113.96 66.38 116.61 74.53 109.68 69.49 102.75 74.53 105.39 66.38 98.46 61.34 107.03 61.34 109.68 53.19"/><polygon points="152.98 53.19 155.63 61.34 164.2 61.34 157.27 66.38 159.91 74.53 152.98 69.49 146.05 74.53 148.7 66.38 141.76 61.34 150.33 61.34 152.98 53.19"/><polygon points="196.29 53.19 198.93 61.34 207.5 61.34 200.57 66.38 203.22 74.53 196.29 69.49 189.35 74.53 192 66.38 185.07 61.34 193.64 61.34 196.29 53.19"/><polygon points="239.59 53.19 242.24 61.34 250.81 61.34 243.88 66.38 246.52 74.53 239.59 69.49 232.66 74.53 235.31 66.38 228.37 61.34 236.94 61.34 239.59 53.19"/><polygon points="282.89 53.19 285.54 61.34 294.11 61.34 287.18 66.38 289.83 74.53 282.89 69.49 275.96 74.53 278.61 66.38 271.68 61.34 280.25 61.34 282.89 53.19"/><polygon points="23.07 94.93 25.72 103.08 34.29 103.08 27.35 108.12 30 116.27 23.07 111.23 16.14 116.27 18.78 108.12 11.85 103.08 20.42 103.08 23.07 94.93"/><polygon points="66.37 94.93 69.02 103.08 77.59 103.08 70.66 108.12 73.31 116.27 66.37 111.23 59.44 116.27 62.09 108.12 55.16 103.08 63.73 103.08 66.37 94.93"/><polygon points="109.68 94.93 112.33 103.08 120.89 103.08 113.96 108.12 116.61 116.27 109.68 111.23 102.75 116.27 105.39 108.12 98.46 103.08 107.03 103.08 109.68 94.93"/><polygon points="152.98 94.93 155.63 103.08 164.2 103.08 157.27 108.12 159.91 116.27 152.98 111.23 146.05 116.27 148.7 108.12 141.76 103.08 150.33 103.08 152.98 94.93"/><polygon points="196.29 94.93 198.93 103.08 207.5 103.08 200.57 108.12 203.22 116.27 196.29 111.23 189.35 116.27 192 108.12 185.07 103.08 193.64 103.08 196.29 94.93"/><polygon points="239.59 94.93 242.24 103.08 250.81 103.08 243.88 108.12 246.52 116.27 239.59 111.23 232.66 116.27 235.31 108.12 228.37 103.08 236.94 103.08 239.59 94.93"/><polygon points="282.89 94.93 285.54 103.08 294.11 103.08 287.18 108.12 289.83 116.27 282.89 111.23 275.96 116.27 278.61 108.12 271.68 103.08 280.25 103.08 282.89 94.93"/><polygon points="23.07 136.67 25.72 144.82 34.29 144.82 27.35 149.86 30 158.01 23.07 152.97 16.14 158.01 18.78 149.86 11.85 144.82 20.42 144.82 23.07 136.67"/><polygon points="66.37 136.67 69.02 144.82 77.59 144.82 70.66 149.86 73.31 158.01 66.37 152.97 59.44 158.01 62.09 149.86 55.16 144.82 63.73 144.82 66.37 136.67"/><polygon points="109.68 136.67 112.33 144.82 120.89 144.82 113.96 149.86 116.61 158.01 109.68 152.97 102.75 158.01 105.39 149.86 98.46 144.82 107.03 144.82 109.68 136.67"/><polygon points="152.98 136.67 155.63 144.82 164.2 144.82 157.27 149.86 159.91 158.01 152.98 152.97 146.05 158.01 148.7 149.86 141.76 144.82 150.33 144.82 152.98 136.67"/><polygon points="196.29 136.67 198.93 144.82 207.5 144.82 200.57 149.86 203.22 158.01 196.29 152.97 189.35 158.01 192 149.86 185.07 144.82 193.64 144.82 196.29 136.67"/><polygon points="239.59 136.67 242.24 144.82 250.81 144.82 243.88 149.86 246.52 158.01 239.59 152.97 232.66 158.01 235.31 149.86 228.37 144.82 236.94 144.82 239.59 136.67"/><polygon points="282.89 136.67 285.54 144.82 294.11 144.82 287.18 149.86 289.83 158.01 282.89 152.97 275.96 158.01 278.61 149.86 271.68 144.82 280.25 144.82 282.89 136.67"/><polygon points="23.07 178.41 25.72 186.56 34.29 186.56 27.35 191.6 30 199.75 23.07 194.71 16.14 199.75 18.78 191.6 11.85 186.56 20.42 186.56 23.07 178.41"/><polygon points="66.37 178.41 69.02 186.56 77.59 186.56 70.66 191.6 73.31 199.75 66.37 194.71 59.44 199.75 62.09 191.6 55.16 186.56 63.73 186.56 66.37 178.41"/><polygon points="109.68 178.41 112.33 186.56 120.89 186.56 113.96 191.6 116.61 199.75 109.68 194.71 102.75 199.75 105.39 191.6 98.46 186.56 107.03 186.56 109.68 178.41"/><polygon points="152.98 178.41 155.63 186.56 164.2 186.56 157.27 191.6 159.91 199.75 152.98 194.71 146.05 199.75 148.7 191.6 141.76 186.56 150.33 186.56 152.98 178.41"/><polygon points="196.29 178.41 198.93 186.56 207.5 186.56 200.57 191.6 203.22 199.75 196.29 194.71 189.35 199.75 192 191.6 185.07 186.56 193.64 186.56 196.29 178.41"/><polygon points="239.59 178.41 242.24 186.56 250.81 186.56 243.88 191.6 246.52 199.75 239.59 194.71 232.66 199.75 235.31 191.6 228.37 186.56 236.94 186.56 239.59 178.41"/><polygon points="282.89 178.41 285.54 186.56 294.11 186.56 287.18 191.6 289.83 199.75 282.89 194.71 275.96 199.75 278.61 191.6 271.68 186.56 280.25 186.56 282.89 178.41"/></g></g></svg>