<svg width="45" height="30" viewBox="0 0 45 30" fill="none" xmlns="http://www.w3.org/2000/svg">
<path d="M44.5461 13.3588V0.052002H0.117432V13.8033V29.773H44.566V13.3588H44.5461ZM19.1827 0.496486V13.3588H0.565888V0.496486H19.1827ZM44.0977 10.6959H19.6272V8.48135H44.0977V10.6959ZM44.0977 5.37394H19.6272V3.14357H44.0977V5.37394ZM44.0977 26.6656H0.565888V24.4511H44.1215L44.0977 26.6656ZM44.0977 21.3437H0.565888V19.1292H44.1215L44.0977 21.3437ZM0.561915 16.0217V13.8033H44.1215V16.0217H0.561915Z" fill="black"/>
<path d="M1.14541 2.14346L1.5899 1.82201L2.03041 2.14346L1.86374 1.62357L2.30425 1.30212H1.75658L1.5899 0.782227L1.41924 1.30212H0.871582L1.31607 1.62357L1.14541 2.14346Z" fill="black"/>
<path d="M2.70882 2.965L2.54215 3.48489L2.98266 3.16344L3.42714 3.48489L3.25649 2.965L3.70098 2.64355H3.15332L2.98266 2.12366L2.81598 2.64355H2.26831L2.70882 2.965Z" fill="black"/>
<path d="M5.45914 2.965L5.28848 3.48489L5.72901 3.16344L6.17349 3.48489L6.00284 2.965L6.44733 2.64355H5.89966L5.72901 2.12366L5.56232 2.64355H5.01465L5.45914 2.965Z" fill="black"/>
<path d="M8.20547 2.965L8.03482 3.48489L8.47533 3.16344L8.91983 3.48489L8.74917 2.965L9.19366 2.64355H8.64599L8.47533 2.12366L8.30866 2.64355H7.76099L8.20547 2.965Z" fill="black"/>
<path d="M10.9518 2.965L10.7812 3.48489L11.2256 3.16344L11.6662 3.48489L11.4955 2.965L11.94 2.64355H11.3923L11.2256 2.12366L11.055 2.64355H10.5073L10.9518 2.965Z" fill="black"/>
<path d="M13.6981 2.965L13.5274 3.48489L13.9719 3.16344L14.4124 3.48489L14.2458 2.965L14.6863 2.64355H14.1386L13.9719 2.12366L13.8013 2.64355H13.2576L13.6981 2.965Z" fill="black"/>
<path d="M16.4444 2.965L16.2738 3.48489L16.7183 3.16344L17.1588 3.48489L16.9921 2.965L17.4326 2.64355H16.8849L16.7183 2.12366L16.5476 2.64355H16.0039L16.4444 2.965Z" fill="black"/>
<path d="M2.98266 5.81444L3.42714 6.13589L3.25649 5.61601L3.70098 5.29455H3.15332L2.98266 4.77466L2.81598 5.29455H2.26831L2.70882 5.61601L2.54215 6.13589L2.98266 5.81444Z" fill="black"/>
<path d="M5.72901 4.77466L5.56232 5.29455H5.01465L5.45914 5.61601L5.28848 6.13589L5.72901 5.81444L6.17349 6.13589L6.00284 5.61601L6.44733 5.29455H5.89966L5.72901 4.77466Z" fill="black"/>
<path d="M8.47533 4.77466L8.30866 5.29455H7.76099L8.20547 5.61601L8.03482 6.13589L8.47533 5.81444L8.91983 6.13589L8.74917 5.61601L9.19366 5.29455H8.64599L8.47533 4.77466Z" fill="black"/>
<path d="M11.2256 4.77466L11.055 5.29455H10.5073L10.9518 5.61601L10.7812 6.13589L11.2256 5.81444L11.6662 6.13589L11.4955 5.61601L11.94 5.29455H11.3923L11.2256 4.77466Z" fill="black"/>
<path d="M13.9719 4.77466L13.8013 5.29455H13.2576L13.6981 5.61601L13.5274 6.13589L13.9719 5.81444L14.4124 6.13589L14.2458 5.61601L14.6863 5.29455H14.1386L13.9719 4.77466Z" fill="black"/>
<path d="M16.7183 4.77466L16.5476 5.29455H16.0039L16.4444 5.61601L16.2738 6.13589L16.7183 5.81444L17.1588 6.13589L16.9921 5.61601L17.4326 5.29455H16.8849L16.7183 4.77466Z" fill="black"/>
<path d="M2.98266 8.4655L3.42714 8.78299L3.25649 8.26707L3.70098 7.94561H3.15332L2.98266 7.42572L2.81598 7.94561H2.26831L2.70882 8.26707L2.54215 8.78299L2.98266 8.4655Z" fill="black"/>
<path d="M5.89966 7.94561L5.72901 7.42572L5.56232 7.94561H5.01465L5.45914 8.26707L5.28848 8.78299L5.72901 8.4655L6.17349 8.78299L6.00284 8.26707L6.44733 7.94561H5.89966Z" fill="black"/>
<path d="M8.64599 7.94561L8.47533 7.42572L8.30866 7.94561H7.76099L8.20547 8.26707L8.03482 8.78299L8.47533 8.4655L8.91983 8.78299L8.74917 8.26707L9.19366 7.94561H8.64599Z" fill="black"/>
<path d="M11.3923 7.94561L11.2256 7.42572L11.055 7.94561H10.5073L10.9518 8.26707L10.7812 8.78299L11.2256 8.4655L11.6662 8.78299L11.4955 8.26707L11.94 7.94561H11.3923Z" fill="black"/>
<path d="M14.1386 7.94561L13.9719 7.42572L13.8013 7.94561H13.2576L13.6981 8.26707L13.5274 8.78299L13.9719 8.4655L14.4124 8.78299L14.2458 8.26707L14.6863 7.94561H14.1386Z" fill="black"/>
<path d="M16.7183 7.42572L16.5476 7.94561H16.0039L16.4444 8.26707L16.2738 8.78299L16.7183 8.4655L17.1588 8.78299L16.9921 8.26707L17.4326 7.94561H16.8849L16.7183 7.42572Z" fill="black"/>
<path d="M3.70098 10.5927H3.15332L2.98266 10.0728L2.81598 10.5927H2.26831L2.70882 10.9142L2.54215 11.4341L2.98266 11.1126L3.42714 11.4341L3.25649 10.9142L3.70098 10.5927Z" fill="black"/>
<path d="M6.44733 10.5927H5.89966L5.72901 10.0728L5.56232 10.5927H5.01465L5.45914 10.9142L5.28848 11.4341L5.72901 11.1126L6.17349 11.4341L6.00284 10.9142L6.44733 10.5927Z" fill="black"/>
<path d="M9.19366 10.5927H8.64599L8.47533 10.0728L8.30866 10.5927H7.76099L8.20547 10.9142L8.03482 11.4341L8.47533 11.1126L8.91983 11.4341L8.74917 10.9142L9.19366 10.5927Z" fill="black"/>
<path d="M11.94 10.5927H11.3923L11.2256 10.0728L11.055 10.5927H10.5073L10.9518 10.9142L10.7812 11.4341L11.2256 11.1126L11.6662 11.4341L11.4955 10.9142L11.94 10.5927Z" fill="black"/>
<path d="M14.6863 10.5927H14.1386L13.9719 10.0728L13.8013 10.5927H13.2576L13.6981 10.9142L13.5274 11.4341L13.9719 11.1126L14.4124 11.4341L14.2458 10.9142L14.6863 10.5927Z" fill="black"/>
<path d="M16.8849 10.5927L16.7183 10.0728L16.5476 10.5927H16.0039L16.4444 10.9142L16.2738 11.4341L16.7183 11.1126L17.1588 11.4341L16.9921 10.9142L17.4326 10.5927H16.8849Z" fill="black"/>
<path d="M3.90738 2.14346L4.34789 1.82201L4.79238 2.14346L4.62173 1.62357L5.06621 1.30212H4.51854L4.34789 0.782227L4.18122 1.30212H3.63354L4.07803 1.62357L3.90738 2.14346Z" fill="black"/>
<path d="M6.66959 2.14346L7.11011 1.82201L7.55459 2.14346L7.38393 1.62357L7.82446 1.30212H7.28076L7.11011 0.782227L6.94342 1.30212H6.39575L6.83628 1.62357L6.66959 2.14346Z" fill="black"/>
<path d="M9.43179 2.14346L9.87232 1.82201L10.3128 2.14346L10.1462 1.62357L10.5867 1.30212H10.043L9.87232 0.782227L9.70563 1.30212H9.15796L9.59848 1.62357L9.43179 2.14346Z" fill="black"/>
<path d="M12.19 2.14346L12.6345 1.82201L13.075 2.14346L12.9083 1.62357L13.3489 1.30212H12.8012L12.6345 0.782227L12.4639 1.30212H11.9202L12.3607 1.62357L12.19 2.14346Z" fill="black"/>
<path d="M14.9521 2.14346L15.3965 1.82201L15.8371 2.14346L15.6664 1.62357L16.1109 1.30212H15.5632L15.3965 0.782227L15.2259 1.30212H14.6782L15.1227 1.62357L14.9521 2.14346Z" fill="black"/>
<path d="M17.7143 2.14346L18.1548 1.82201L18.5993 2.14346L18.4286 1.62357L18.8731 1.30212H18.3254L18.1548 0.782227L17.9881 1.30212H17.4404L17.8849 1.62357L17.7143 2.14346Z" fill="black"/>
<path d="M1.14541 4.80246L1.5899 4.481L2.03041 4.80246L1.86374 4.28257L2.30425 3.96111H1.75658L1.5899 3.44519L1.41924 3.96111H0.871582L1.31607 4.28257L1.14541 4.80246Z" fill="black"/>
<path d="M4.34789 3.44519L4.18122 3.96111H3.63354L4.07803 4.28257L3.90738 4.80246L4.34789 4.481L4.79238 4.80246L4.62173 4.28257L5.06621 3.96111H4.51854L4.34789 3.44519Z" fill="black"/>
<path d="M7.11011 3.44519L6.94342 3.96111H6.39575L6.83628 4.28257L6.66959 4.80246L7.11011 4.481L7.55459 4.80246L7.38393 4.28257L7.82446 3.96111H7.28076L7.11011 3.44519Z" fill="black"/>
<path d="M9.87232 3.44519L9.70563 3.96111H9.15796L9.59848 4.28257L9.43179 4.80246L9.87232 4.481L10.3128 4.80246L10.1462 4.28257L10.5867 3.96111H10.043L9.87232 3.44519Z" fill="black"/>
<path d="M12.6345 3.44519L12.4639 3.96111H11.9202L12.3607 4.28257L12.19 4.80246L12.6345 4.481L13.075 4.80246L12.9083 4.28257L13.3489 3.96111H12.8012L12.6345 3.44519Z" fill="black"/>
<path d="M15.5632 3.96111L15.3965 3.44519L15.2259 3.96111H14.6782L15.1227 4.28257L14.9521 4.80246L15.3965 4.481L15.8371 4.80246L15.6664 4.28257L16.1109 3.96111H15.5632Z" fill="black"/>
<path d="M17.7143 4.80246L18.1548 4.481L18.5993 4.80246L18.4286 4.28257L18.8731 3.96111H18.3254L18.1548 3.44519L17.9881 3.96111H17.4404L17.8849 4.28257L17.7143 4.80246Z" fill="black"/>
<path d="M1.14541 7.46542L1.5899 7.14397L2.03041 7.46542L1.86374 6.94554L2.30425 6.62408H1.75658L1.5899 6.10419L1.41924 6.62408H0.871582L1.31607 6.94554L1.14541 7.46542Z" fill="black"/>
<path d="M4.34789 7.14397L4.79238 7.46542L4.62173 6.94554L5.06621 6.62408H4.51854L4.34789 6.10419L4.18122 6.62408H3.63354L4.07803 6.94554L3.90738 7.46542L4.34789 7.14397Z" fill="black"/>
<path d="M7.28076 6.62408L7.11011 6.10419L6.94342 6.62408H6.39575L6.83628 6.94554L6.66959 7.46542L7.11011 7.14397L7.55459 7.46542L7.38393 6.94554L7.82446 6.62408H7.28076Z" fill="black"/>
<path d="M10.043 6.62408L9.87232 6.10419L9.70563 6.62408H9.15796L9.59848 6.94554L9.43179 7.46542L9.87232 7.14397L10.3128 7.46542L10.1462 6.94554L10.5867 6.62408H10.043Z" fill="black"/>
<path d="M12.8012 6.62408L12.6345 6.10419L12.4639 6.62408H11.9202L12.3607 6.94554L12.19 7.46542L12.6345 7.14397L13.075 7.46542L12.9083 6.94554L13.3489 6.62408H12.8012Z" fill="black"/>
<path d="M15.5632 6.62408L15.3965 6.10419L15.2259 6.62408H14.6782L15.1227 6.94554L14.9521 7.46542L15.3965 7.14397L15.8371 7.46542L15.6664 6.94554L16.1109 6.62408H15.5632Z" fill="black"/>
<path d="M17.7143 7.46542L18.1548 7.14397L18.5993 7.46542L18.4286 6.94554L18.8731 6.62408H18.3254L18.1548 6.10419L17.9881 6.62408H17.4404L17.8849 6.94554L17.7143 7.46542Z" fill="black"/>
<path d="M1.14541 10.1283L1.5899 9.80687L2.03041 10.1283L1.86374 9.60844L2.30425 9.28698H1.75658L1.5899 8.76709L1.41924 9.28698H0.871582L1.31607 9.60844L1.14541 10.1283Z" fill="black"/>
<path d="M4.51854 9.28698L4.34789 8.76709L4.18122 9.28698H3.63354L4.07803 9.60844L3.90738 10.1283L4.34789 9.80687L4.79238 10.1283L4.62173 9.60844L5.06621 9.28698H4.51854Z" fill="black"/>
<path d="M7.28076 9.28698L7.11011 8.76709L6.94342 9.28698H6.39575L6.83628 9.60844L6.66959 10.1283L7.11011 9.80687L7.55459 10.1283L7.38393 9.60844L7.82446 9.28698H7.28076Z" fill="black"/>
<path d="M10.043 9.28698L9.87232 8.76709L9.70563 9.28698H9.15796L9.59848 9.60844L9.43179 10.1283L9.87232 9.80687L10.3128 10.1283L10.1462 9.60844L10.5867 9.28698H10.043Z" fill="black"/>
<path d="M12.8012 9.28698L12.6345 8.76709L12.4639 9.28698H11.9202L12.3607 9.60844L12.19 10.1283L12.6345 9.80687L13.075 10.1283L12.9083 9.60844L13.3489 9.28698H12.8012Z" fill="black"/>
<path d="M15.5632 9.28698L15.3965 8.76709L15.2259 9.28698H14.6782L15.1227 9.60844L14.9521 10.1283L15.3965 9.80687L15.8371 10.1283L15.6664 9.60844L16.1109 9.28698H15.5632Z" fill="black"/>
<path d="M17.7143 10.1283L18.1548 9.80687L18.5993 10.1283L18.4286 9.60844L18.8731 9.28698H18.3254L18.1548 8.76709L17.9881 9.28698H17.4404L17.8849 9.60844L17.7143 10.1283Z" fill="black"/>
<path d="M1.75658 11.946L1.5899 11.4261L1.41924 11.946H0.871582L1.31607 12.2674L1.14541 12.7873L1.5899 12.4659L2.03041 12.7873L1.86374 12.2674L2.30425 11.946H1.75658Z" fill="black"/>
<path d="M4.51854 11.946L4.34789 11.4261L4.18122 11.946H3.63354L4.07803 12.2674L3.90738 12.7873L4.34789 12.4659L4.79238 12.7873L4.62173 12.2674L5.06621 11.946H4.51854Z" fill="black"/>
<path d="M7.28076 11.946L7.11011 11.4261L6.94342 11.946H6.39575L6.83628 12.2674L6.66959 12.7873L7.11011 12.4659L7.55459 12.7873L7.38393 12.2674L7.82446 11.946H7.28076Z" fill="black"/>
<path d="M10.043 11.946L9.87232 11.4261L9.70563 11.946H9.15796L9.59848 12.2674L9.43179 12.7873L9.87232 12.4659L10.3128 12.7873L10.1462 12.2674L10.5867 11.946H10.043Z" fill="black"/>
<path d="M12.8012 11.946L12.6345 11.4261L12.4639 11.946H11.9202L12.3607 12.2674L12.19 12.7873L12.6345 12.4659L13.075 12.7873L12.9083 12.2674L13.3489 11.946H12.8012Z" fill="black"/>
<path d="M15.5632 11.946L15.3965 11.4261L15.2259 11.946H14.6782L15.1227 12.2674L14.9521 12.7873L15.3965 12.4659L15.8371 12.7873L15.6664 12.2674L16.1109 11.946H15.5632Z" fill="black"/>
<path d="M17.7143 12.7873L18.1548 12.4659L18.5993 12.7873L18.4286 12.2674L18.8731 11.946H18.3254L18.1548 11.4261L17.9881 11.946H17.4404L17.8849 12.2674L17.7143 12.7873Z" fill="black"/>
</svg>
