<svg width="16" height="10" viewBox="0 0 16 10" fill="none" xmlns="http://www.w3.org/2000/svg">
<path d="M4.53094 4.80304H7.28068V8.69942C6.85022 8.84043 6.41605 8.94434 5.97817 9.01113C5.54029 9.07793 5.04304 9.11133 4.48641 9.11133C3.6626 9.11133 2.96867 8.94805 2.40463 8.62149C1.84058 8.28752 1.41012 7.81624 1.11325 7.20766C0.823807 6.59166 0.679084 5.86434 0.679084 5.02569C0.679084 4.19446 0.842362 3.47455 1.16892 2.86598C1.49547 2.2574 1.96304 1.78612 2.57161 1.45214C3.18761 1.11075 3.92978 0.940048 4.79812 0.940048C5.24342 0.940048 5.66275 0.980867 6.0561 1.06251C6.45687 1.14414 6.82795 1.25918 7.16935 1.40761L6.79084 2.27595C6.50882 2.14978 6.18969 2.04217 5.83345 1.95311C5.48463 1.86405 5.12096 1.81952 4.74246 1.81952C4.11161 1.81952 3.56983 1.9494 3.11711 2.20916C2.66439 2.46892 2.31928 2.84 2.08178 3.32241C1.84429 3.7974 1.72554 4.36516 1.72554 5.02569C1.72554 5.65653 1.82574 6.21687 2.02612 6.7067C2.23393 7.18911 2.55677 7.56761 2.99465 7.84222C3.43253 8.1094 4.00771 8.24299 4.72019 8.24299C4.95769 8.24299 5.16549 8.23557 5.34361 8.22072C5.52916 8.19846 5.69614 8.17248 5.84458 8.1428C6.00043 8.11311 6.14516 8.08342 6.27875 8.05373V5.69364H4.53094V4.80304ZM15.6917 4.94776C15.6917 5.83836 15.521 6.58424 15.1796 7.1854C14.8382 7.78655 14.341 8.23928 13.6879 8.54357C13.0422 8.84786 12.2629 9 11.3501 9H9.10128V1.05137H11.595C12.4262 1.05137 13.1461 1.19981 13.7547 1.49667C14.3707 1.79354 14.8457 2.23142 15.1796 2.81031C15.521 3.38178 15.6917 4.09426 15.6917 4.94776ZM13.9439 4.99229C13.9439 4.40598 13.8586 3.92357 13.6879 3.54506C13.5172 3.16655 13.2611 2.88824 12.9197 2.71012C12.5858 2.52458 12.1739 2.43181 11.684 2.43181H10.7823V7.60843H11.5059C12.3297 7.60843 12.942 7.38949 13.3428 6.95161C13.7435 6.51373 13.9439 5.86063 13.9439 4.99229Z" fill="white"/>
</svg>
