<svg width="12" height="12" viewBox="0 0 12 12" fill="none" xmlns="http://www.w3.org/2000/svg">
<path d="M5.80133 0C5.59261 0 5.38874 0.0780717 5.2318 0.239198L4.06684 1.44848C4.00374 1.48336 3.95034 1.53319 3.91151 1.59465L0.235419 5.36867C-0.0784729 5.68926 -0.0784729 6.21583 0.235419 6.53808L5.2318 11.6676C5.54569 11.9881 6.05698 11.9881 6.37087 11.6676L11.3672 6.53808C11.6811 6.21749 11.6811 5.69092 11.3672 5.36867L6.37087 0.239198C6.21392 0.0780717 6.01006 0 5.80133 0ZM5.80133 0.863771L10.7589 5.95338L5.80133 11.043L0.843786 5.95338L4.27394 2.43185L4.99881 3.17602C4.97939 3.24745 4.97292 3.32386 4.97292 3.40193C4.97292 3.71588 5.13957 3.98498 5.38713 4.13281V7.77394C5.13957 7.92178 4.97292 8.19088 4.97292 8.50482C4.97292 8.97492 5.34344 9.35531 5.80133 9.35531C6.25923 9.35531 6.62975 8.97492 6.62975 8.50482C6.62975 8.19088 6.46309 7.92178 6.21554 7.77394V4.43846L7.48405 5.74076C7.46625 5.80886 7.45816 5.88029 7.45816 5.95338C7.45816 6.42347 7.82869 6.80386 8.28658 6.80386C8.74447 6.80386 9.11499 6.42347 9.11499 5.95338C9.11499 5.48329 8.74447 5.10289 8.28658 5.10289C8.21539 5.10289 8.14581 5.1112 8.07948 5.12947L6.60386 3.61455C6.62166 3.54645 6.62975 3.47502 6.62975 3.40193C6.62975 2.93184 6.25923 2.55145 5.80133 2.55145C5.72529 2.55145 5.65086 2.55809 5.58129 2.57802L4.85642 1.83385L5.80133 0.863771Z" fill="#73F2A8"/>
</svg>
