<svg width="10" height="11" viewBox="0 0 10 11" fill="none" xmlns="http://www.w3.org/2000/svg">
<path d="M9.10146 0.0710181C9.05964 0.0256693 8.99953 0 8.93681 0H0.223193C0.160468 0 0.100356 0.0256693 0.0585389 0.0710181C0.0158506 0.116367 -0.00505792 0.177117 0.00104044 0.238723L0.78598 8.87468C0.793821 8.96538 0.858289 9.04068 0.94715 9.06635L4.51815 10.0674C4.53731 10.0734 4.55822 10.076 4.57913 10.076C4.60004 10.076 4.62007 10.0734 4.64011 10.0674L8.21372 9.06635C8.30258 9.04068 8.36618 8.96538 8.37489 8.87468L9.15896 0.238723C9.16506 0.177117 9.14415 0.116367 9.10146 0.0710181ZM7.22231 3.04864H3.02667L3.12686 4.16354H7.12125L6.82156 7.4586L4.57826 8.12429L4.55648 8.11744L2.33931 7.45775L2.21821 6.11525H3.30458L3.35163 6.63633L4.59133 6.89131L5.80837 6.63633L5.93818 5.22624H2.13719L1.84186 1.98337H7.31901L7.22231 3.04864Z" fill="#73F2A8"/>
</svg>
