<svg width="14" height="14" viewBox="0 0 14 14" fill="none" xmlns="http://www.w3.org/2000/svg">
<path d="M2.95942 2.00925C2.18743 3.13926 2.28358 4.6093 2.87174 5.80857L2.915 5.89405L2.94422 5.94812C2.94963 5.95864 2.95591 5.96902 2.96146 5.97925C2.97169 5.99824 2.98192 6.01651 2.99069 6.03521L3.04695 6.13356L3.0791 6.18762L3.14442 6.29167L3.17364 6.33551C3.20287 6.38227 3.23589 6.42873 3.26833 6.47462C3.26906 6.47579 3.27009 6.4771 3.27096 6.47827C3.27608 6.48558 3.28178 6.49288 3.28558 6.50019C3.31363 6.53965 3.34403 6.57852 3.37325 6.61709L3.40569 6.65918L3.48533 6.75884L3.51573 6.79595C3.55195 6.83969 3.58897 6.88276 3.62678 6.92513L3.62912 6.92747C3.63058 6.92937 3.63204 6.93039 3.6335 6.93229C3.67014 6.97361 3.70775 7.01405 3.74632 7.05358L3.78256 7.09069L3.87272 7.18071L3.90954 7.21636C3.95006 7.25519 3.99122 7.29333 4.03302 7.33078L4.0564 7.35124L4.16848 7.44768L4.21495 7.48538L4.30847 7.55845L4.35844 7.59717L4.50136 7.70165C4.50501 7.70414 4.50822 7.70677 4.51188 7.70925C4.54549 7.73263 4.57953 7.75528 4.61373 7.77793L4.65786 7.80789L4.81743 7.90725L4.86156 7.93253L4.98139 8.00092C5.0033 8.0129 5.02566 8.0243 5.04758 8.0357L5.13321 8.07954L5.15294 8.08918L5.18801 8.10642L5.32391 8.17043L5.3527 8.18504C5.40509 8.20834 5.4579 8.2307 5.5111 8.25211L5.54968 8.2676L5.69916 8.32401L5.71787 8.33073C5.77307 8.3502 5.82861 8.36871 5.88445 8.38626L5.92464 8.39853C5.98309 8.41607 6.03789 8.43696 6.09663 8.44822C9.8299 9.1432 10.9146 6.16483 10.9146 6.16483C10.0038 7.3733 8.38718 7.69186 6.85547 7.33721C6.79746 7.3226 6.7412 7.3055 6.6845 7.2884L6.64183 7.27379C6.5866 7.25655 6.53165 7.23828 6.47729 7.21928L6.45464 7.21095C6.406 7.19342 6.35763 7.17516 6.30954 7.15616L6.26862 7.13979C6.216 7.11864 6.16378 7.09652 6.11197 7.07345L6.0807 7.05942L5.9486 6.99659L5.91061 6.97788C5.87629 6.96064 5.84219 6.94295 5.80832 6.92484L5.74008 6.88831C5.69885 6.86571 5.65802 6.84237 5.61762 6.81831L5.57627 6.79493C5.5225 6.76278 5.46931 6.72917 5.4167 6.69556C5.40209 6.68606 5.38806 6.67598 5.37359 6.66634L5.26005 6.58947L5.22352 6.56317L5.11612 6.48426L5.06848 6.44773L4.97159 6.37058L4.92834 6.33551L4.80779 6.23322C4.80369 6.22956 4.79902 6.22591 4.79317 6.22196C4.75021 6.18353 4.70798 6.14408 4.66633 6.10448L4.63068 6.06941L4.5395 5.97852L4.50384 5.94198C4.46586 5.90252 4.42859 5.86238 4.39205 5.82157C4.3903 5.81953 4.38825 5.81763 4.3865 5.81573C4.34788 5.77261 4.31007 5.72876 4.27311 5.68421L4.24344 5.64827L4.16161 5.54554L4.13165 5.50755L4.0374 5.37968C3.18694 4.19824 2.88299 2.56892 3.56103 1.23069M5.35591 1.05709C4.7977 1.8754 4.82795 2.97048 5.26341 3.83585C5.33625 3.98115 5.41875 4.12141 5.51037 4.25567C5.59395 4.37769 5.68674 4.52309 5.7978 4.62099C5.83798 4.66483 5.88007 4.70867 5.92303 4.75338C5.93384 4.76463 5.94495 4.7753 5.95606 4.78655C5.99775 4.82795 6.04043 4.86834 6.08406 4.90769C6.08582 4.90915 6.08742 4.91091 6.08932 4.91237C6.13845 4.95603 6.18868 4.99842 6.23998 5.0395L6.27388 5.06639C6.32496 5.10654 6.3771 5.14532 6.43024 5.18271C6.43167 5.18387 6.43313 5.18499 6.43462 5.18607C6.458 5.20258 6.48211 5.21821 6.50593 5.234C6.51733 5.24159 6.52815 5.24963 6.53954 5.25679C6.57764 5.28173 6.61628 5.30585 6.65542 5.32912L6.67179 5.33877L6.77408 5.39722C6.78606 5.40409 6.79834 5.41008 6.81061 5.41651L6.88367 5.45421C6.88733 5.45611 6.89098 5.45757 6.89449 5.45932C6.94373 5.48417 6.99327 5.50755 7.04398 5.5302C7.05479 5.53502 7.06589 5.5394 7.077 5.54408C7.11748 5.56161 7.15839 5.57856 7.19975 5.59478L7.25235 5.61437C7.28965 5.62824 7.32716 5.64154 7.36487 5.65426L7.41572 5.67077C7.46935 5.68787 7.5224 5.7092 7.57836 5.7187C10.4607 6.20501 11.1263 3.94471 11.1263 3.94471C10.5265 4.8244 9.36492 5.24437 8.12517 4.91675C8.07033 4.90218 8.0159 4.8861 7.96195 4.86853C7.94544 4.86342 7.92922 4.85801 7.91285 4.85392C7.87456 4.84128 7.83652 4.82793 7.79872 4.81388L7.74714 4.7943C7.70579 4.77969 7.66487 4.76142 7.62439 4.74388C7.61329 4.73906 7.60218 4.73468 7.59122 4.72956C7.54037 4.70731 7.49018 4.68358 7.44071 4.6584C7.41529 4.64569 7.3903 4.63239 7.36531 4.61924L7.32176 4.59644C7.28962 4.57877 7.2578 4.5605 7.22634 4.54164L7.20355 4.52703C7.16463 4.50377 7.12614 4.4798 7.08811 4.45514C7.07642 4.44754 7.06502 4.44052 7.05333 4.43146L6.97851 4.38105C6.92566 4.34364 6.87372 4.30495 6.82274 4.26502L6.78767 4.23697C6.2451 3.80063 5.8149 3.20443 5.61046 2.5283C5.3961 1.82689 5.44242 1.03999 5.81504 0.401266M7.37101 0.345738C7.04193 0.839064 7.00963 1.45163 7.23949 1.99639C7.48031 2.57462 7.97378 3.02835 8.54967 3.2433C8.57335 3.25236 8.59716 3.2604 8.62274 3.26858L8.6543 3.27881C8.6882 3.28962 8.72196 3.30219 8.75688 3.30891C10.3485 3.62206 10.7802 2.47715 10.895 2.30867C10.5168 2.86322 9.88133 2.99634 9.1016 2.8036C9.04022 2.78826 8.97227 2.76561 8.91163 2.74427C8.83533 2.71667 8.76055 2.68501 8.68762 2.64944C8.54885 2.58139 8.41726 2.49959 8.29483 2.40526C7.59561 1.86605 7.16205 0.837603 7.61738 0" fill="#73F2A8"/>
<path d="M7.02454 9.94241H6.53063C6.50316 9.94241 6.47598 9.96433 6.47013 9.99121L6.11943 11.6143C6.11358 11.641 6.0864 11.6629 6.05908 11.6629H5.70939C5.36336 11.6629 5.4034 11.4237 5.47559 11.0959L5.47778 11.086L5.51972 10.8624L5.53784 10.7704L5.69741 9.99121C5.70297 9.96433 5.68499 9.94226 5.65752 9.94226H5.15046C5.13648 9.94274 5.12304 9.94777 5.11217 9.95657C5.10131 9.96538 5.09361 9.97749 5.09025 9.99107L4.86186 11.0745C4.73619 11.6479 4.7695 12.1947 5.45221 12.2118L5.47194 12.2122H6.54334C6.57082 12.2122 6.59785 12.1903 6.6037 12.1634L7.06575 9.99107C7.0716 9.96418 7.05362 9.94226 7.0263 9.94226L7.02454 9.94241ZM8.99536 11.6686C9.02284 11.6686 9.0392 11.6905 9.03526 11.7174L8.98733 11.952" fill="#73F2A8"/>
<path d="M7.67411 11.3668C7.67367 11.3411 7.7029 11.2969 7.73037 11.2969L7.6687 11.2959C7.63948 11.5756 7.67411 11.3668 7.67411 11.3668ZM8.99554 11.6687C9.02301 11.6687 9.03938 11.6906 9.03543 11.7175L8.97961 11.9902" fill="#73F2A8"/>
<path d="M8.07661 12.2403H8.05352H8.07953H8.07661ZM0.814365 11.3726L0.891082 11.0325L0.803406 11.4212L0.793177 11.47L0.814511 11.3723L0.814365 11.3726ZM1.73292 9.93694H1.19035C1.17633 9.93748 1.16286 9.9425 1.15189 9.95126C1.14093 9.96001 1.13305 9.97205 1.12942 9.9856L1.02654 10.4386C1.02481 10.4445 1.02452 10.4506 1.0257 10.4566C1.02688 10.4626 1.02948 10.4683 1.0333 10.473C1.03711 10.4778 1.04203 10.4816 1.04762 10.4841C1.05321 10.4866 1.05931 10.4876 1.06541 10.4873H1.61222C1.63969 10.4873 1.66687 10.4653 1.67272 10.4386L1.77208 9.98457C1.77793 9.95783 1.76039 9.93591 1.73263 9.93591L1.73292 9.93694ZM0.0387203 13.1317L0.486163 13.1352C0.354064 13.1352 0.135895 13.1327 0.0385742 13.1316L0.0387203 13.1317Z" fill="#73F2A8"/>
<path d="M1.57547 10.6435H1.02851C1.01449 10.644 1.00102 10.649 0.990052 10.6578C0.979088 10.6665 0.971213 10.6786 0.967576 10.6921L0.814142 11.3725L0.792807 11.4701L0.64668 12.1647C0.63944 12.1971 0.630663 12.2291 0.620377 12.2607C0.620377 12.2607 0.518087 12.5646 0.346534 12.5612L0.176295 12.558C0.162332 12.5584 0.148856 12.5632 0.137821 12.5718C0.126786 12.5804 0.118765 12.5922 0.114922 12.6057L0.00167272 13.0825C-0.000116495 13.0883 -0.000476657 13.0945 0.00062266 13.1005C0.00172198 13.1065 0.00424848 13.1121 0.00798876 13.1169C0.011729 13.1218 0.0165732 13.1256 0.0221121 13.1281C0.027651 13.1307 0.0337219 13.1319 0.039812 13.1316L0.487401 13.1352C0.916431 13.1352 1.14249 12.8975 1.28759 12.2136L1.61638 10.6939C1.62223 10.6671 1.6044 10.6452 1.57693 10.6452L1.57547 10.6435ZM9.3439 12.2126C9.31643 12.2126 9.30006 12.1907 9.30444 12.1638L9.71579 10.2369" fill="#73F2A8"/>
<path d="M9.31047 12.1882C9.30711 12.1747 9.30901 12.1419 9.31485 12.1151L9.51008 11.2004L9.30433 12.1638C9.29849 12.1907 9.31632 12.2126 9.34379 12.2126H9.39376C9.36629 12.2126 9.31369 12.2016 9.31047 12.1882ZM9.88329 12.2016C9.86838 12.2075 9.83361 12.2126 9.80613 12.2126H9.85611C9.87006 12.212 9.88345 12.207 9.89425 12.1981C9.90506 12.1893 9.9127 12.1772 9.91602 12.1636L9.92596 12.1148C9.92055 12.1417 9.89673 12.1956 9.88212 12.2016H9.88329ZM11.6219 10.366L11.6446 10.4595C11.6508 10.4862 11.6335 10.508 11.6061 10.5081" fill="#73F2A8"/>
<path d="M10.0723 11.3894L10.0924 11.2924L10.1709 10.9249L10.0821 11.341L10.0723 11.3894ZM9.72258 10.2052L9.70548 10.2856L9.51025 11.2003L9.716 10.2369L9.72258 10.2053V10.2052Z" fill="#73F2A8"/>
<path d="M11.6449 10.4594L11.6222 10.3659L11.5886 10.2198C11.5442 10.0474 11.4138 9.94755 11.1306 9.94755L9.82719 9.94667C9.81321 9.94715 9.79977 9.95217 9.78891 9.96098C9.77804 9.96979 9.77035 9.9819 9.76699 9.99547L9.74682 10.0909L9.7176 10.2351L9.31662 12.1133C9.31078 12.1402 9.30888 12.1718 9.31224 12.1864C9.3156 12.201 9.36821 12.2108 9.39553 12.2108H9.80761C9.83508 12.2108 9.86971 12.2058 9.88477 12.1998C9.89982 12.1938 9.92188 12.1414 9.92861 12.113L10.085 11.3394L10.2523 10.5556C10.2581 10.5288 10.2852 10.5071 10.3125 10.5069L11.6091 10.5063C11.6364 10.5063 11.6538 10.4844 11.6475 10.4577L11.6449 10.4594ZM13.3141 9.61291L13.2143 9.61335H12.7993C12.7841 9.61426 12.7693 9.6184 12.7558 9.62551C12.7423 9.63262 12.7306 9.64252 12.7212 9.65456L11.8036 10.9989C11.7881 11.0216 11.7704 11.0182 11.7641 10.9916L11.6966 10.6954C11.693 10.6819 11.6851 10.6698 11.6741 10.6611C11.6632 10.6523 11.6497 10.6473 11.6357 10.6468H11.0457C11.0183 10.6468 11.0019 10.6682 11.0095 10.6947L11.2725 11.6209C11.2801 11.6472 11.2806 11.6906 11.274 11.7173L11.1571 12.1655C11.1551 12.1712 11.1546 12.1774 11.1556 12.1834C11.1566 12.1894 11.159 12.195 11.1628 12.1998C11.1665 12.2046 11.1714 12.2084 11.1769 12.2109C11.1825 12.2133 11.1886 12.2143 11.1947 12.2138H11.7792C11.8066 12.2138 11.8347 12.1919 11.8414 12.1656L11.9583 11.7174C11.9675 11.6859 11.9818 11.6561 12.0007 11.6292L13.4921 9.65164C13.5086 9.62972 13.4997 9.61189 13.4722 9.61218L13.3158 9.61321L13.3141 9.61291ZM8.6269 10.7727C8.62339 10.802 8.59592 10.8239 8.56845 10.8239H7.82028C7.79441 10.8239 7.78126 10.8063 7.78521 10.7844L7.78579 10.7805L7.78915 10.7678C7.86222 10.5778 8.00615 10.4531 8.27956 10.4531C8.58745 10.4531 8.6475 10.6037 8.62661 10.7727H8.6269ZM8.40742 9.90941C7.44736 9.90941 7.21984 10.4922 7.09227 11.0803C6.96455 11.6799 6.97566 12.2406 7.96903 12.2406H8.12656L8.24785 12.2401L8.87999 12.2363C8.89386 12.2357 8.90715 12.2306 8.91787 12.2218C8.92859 12.2129 8.93617 12.2009 8.93947 12.1874L9.03547 11.718C9.04103 11.6911 9.02305 11.6692 8.99558 11.6692H8.10245C7.74736 11.6692 7.64171 11.5748 7.68058 11.2973H9.10824C9.13163 11.2969 9.15281 11.2827 9.16114 11.2605C9.1626 11.2566 9.16406 11.2523 9.16465 11.2481C9.37653 10.4488 9.31575 9.90999 8.40771 9.90999L8.40742 9.90941ZM3.86957 10.7695L3.85613 10.8173L3.74829 11.1996L3.64044 11.5815C3.63596 11.595 3.6275 11.6068 3.61618 11.6154C3.60486 11.6239 3.5912 11.6288 3.57703 11.6295H3.00625C2.57342 11.6295 2.46806 11.2909 2.57342 10.7916C2.67863 10.2809 2.8854 9.96333 3.31137 9.93118C3.89354 9.88734 4.00986 10.2968 3.86957 10.7694V10.7695ZM4.2609 11.6002C4.2609 11.6002 4.52978 10.9471 4.59115 10.5696C4.67444 10.0644 4.42164 9.33191 3.44478 9.33191C2.47347 9.33191 2.05175 10.0313 1.89086 10.7932C1.73012 11.5589 1.94084 12.2305 2.90645 12.2252L4.38029 12.2198C4.39442 12.2192 4.408 12.2141 4.41916 12.2054C4.43033 12.1968 4.43855 12.1848 4.44268 12.1713L4.56689 11.6982C4.5689 11.6924 4.56945 11.6863 4.56849 11.6803C4.56753 11.6743 4.56509 11.6686 4.56139 11.6638C4.55769 11.659 4.55285 11.6552 4.54731 11.6527C4.54176 11.6502 4.53569 11.6492 4.52963 11.6496L4.29188 11.6482C4.2685 11.648 4.25535 11.633 4.25798 11.6131C4.25856 11.6095 4.25944 11.6058 4.2609 11.602V11.6002Z" fill="#73F2A8"/>
<path d="M9.06913 11.1632C9.06913 11.1813 9.05451 11.196 9.0364 11.196C9.01828 11.196 9.00366 11.1813 9.00366 11.1632C9.00366 11.1451 9.01828 11.1305 9.0364 11.1305C9.05451 11.1305 9.06913 11.1451 9.06913 11.1632Z" fill="#73F2A8"/>
</svg>
