<svg width="15" height="15" viewBox="0 0 15 15" fill="none" xmlns="http://www.w3.org/2000/svg">
<path d="M14.3426 3.31557C14.3479 3.33511 14.3506 3.35526 14.3507 3.3755V6.52137C14.3507 6.56174 14.3399 6.60141 14.3195 6.63634C14.2991 6.67128 14.2698 6.70026 14.2345 6.72035L11.573 8.24053V11.2536C11.573 11.3356 11.529 11.4113 11.4574 11.4526L5.90165 14.6255C5.88894 14.6326 5.87506 14.6372 5.86119 14.6421C5.85599 14.6438 5.85107 14.647 5.84558 14.6484C5.80675 14.6585 5.76592 14.6585 5.72709 14.6484C5.72073 14.6467 5.71495 14.6432 5.70888 14.6409C5.69616 14.6363 5.68287 14.6323 5.67073 14.6255L0.116183 11.4526C0.080897 11.4325 0.0515775 11.4035 0.0311801 11.3686C0.0107826 11.3337 2.7959e-05 11.294 0 11.2536L0 1.81604C0 1.79539 0.00289013 1.77532 0.00809237 1.75582C0.00982645 1.74923 0.0138726 1.74321 0.0161847 1.73661C0.0205199 1.72457 0.0245661 1.71224 0.0309244 1.70106C0.0352596 1.69361 0.0416179 1.68759 0.0468202 1.6807C0.0534675 1.67153 0.0595367 1.66207 0.0673401 1.65404C0.0739874 1.64745 0.0826578 1.64257 0.0901722 1.63684C0.0985535 1.62996 0.106068 1.6225 0.115605 1.61705L2.89331 0.0306419C2.92848 0.0105661 2.96834 0 3.00892 0C3.04949 0 3.08936 0.0105661 3.12452 0.0306419L5.90194 1.61705H5.90252C5.91177 1.62279 5.91957 1.62996 5.92795 1.63655C5.93547 1.64228 5.94385 1.64745 5.9505 1.65375C5.95859 1.66207 5.96437 1.67153 5.9713 1.6807C5.97622 1.68759 5.98286 1.69361 5.98691 1.70106C5.99356 1.71253 5.99732 1.72457 6.00194 1.73661C6.00425 1.74321 6.0083 1.74923 6.01003 1.75611C6.01535 1.77565 6.01807 1.7958 6.01812 1.81604V7.71067L8.33254 6.38862V3.37521C8.33254 3.35514 8.33543 3.33478 8.34064 3.31557C8.34266 3.30869 8.34642 3.30267 8.34873 3.29607C8.35335 3.28403 8.3574 3.2717 8.36376 3.26052C8.36809 3.25307 8.37445 3.24705 8.37936 3.24016C8.3863 3.23099 8.39208 3.22153 8.40017 3.2135C8.40682 3.20691 8.4152 3.20203 8.42272 3.1963C8.43139 3.18942 8.4389 3.18196 8.44815 3.17651L11.2261 1.5901C11.2613 1.57 11.3012 1.55942 11.3418 1.55942C11.3823 1.55942 11.4222 1.57 11.4574 1.5901L14.2348 3.17651C14.2446 3.18225 14.2521 3.18942 14.2608 3.19601C14.268 3.20174 14.2764 3.2069 14.283 3.21321C14.2911 3.22153 14.2969 3.23099 14.3038 3.24016C14.309 3.24705 14.3154 3.25307 14.3195 3.26052C14.3261 3.2717 14.3299 3.28403 14.3345 3.29607C14.3371 3.30267 14.3408 3.30869 14.3426 3.31557ZM13.8877 6.38862V3.7726L12.9157 4.32769L11.573 5.09466V7.71067L13.888 6.38862H13.8877ZM11.1103 11.1209V8.50316L9.78946 9.2515L6.01784 11.387V14.0294L11.1103 11.1209ZM0.462999 2.21314V11.1209L5.55484 14.0291V11.3873L2.89476 9.89374L2.89389 9.89317L2.89273 9.8926C2.88377 9.88744 2.87626 9.87998 2.86788 9.87367C2.86065 9.86794 2.85227 9.86335 2.84591 9.85705L2.84534 9.85618C2.83782 9.84902 2.83262 9.84013 2.82626 9.8321C2.82048 9.82436 2.81354 9.81776 2.80892 9.80974L2.80863 9.80888C2.80343 9.80027 2.80025 9.78995 2.79649 9.7802C2.79274 9.7716 2.78782 9.76357 2.78551 9.7544C2.78262 9.7435 2.78204 9.73175 2.78089 9.72057C2.77973 9.71196 2.77742 9.70336 2.77742 9.69476V3.5352L1.43495 2.76794L0.462999 2.21314ZM3.00921 0.494552L0.695077 1.81604L3.00863 3.13752L5.32247 1.81575L3.00863 0.494552H3.00921ZM4.21266 8.74171L5.55513 7.97503V2.21314L4.58317 2.76823L3.24042 3.5352V9.29708L4.21266 8.74171ZM11.3418 2.05401L9.02791 3.3755L11.3418 4.69698L13.6553 3.37521L11.3418 2.05401ZM11.1103 5.09466L9.7675 4.32769L8.79554 3.7726V6.38862L10.138 7.1553L11.1103 7.71067V5.09466ZM5.78605 10.9899L9.17993 9.06771L10.8764 8.1072L8.56433 6.78658L5.90223 8.30705L3.47596 9.69275L5.78605 10.9899Z" fill="#73F2A8"/>
</svg>
