<svg width="22" height="12" viewBox="0 0 22 12" fill="none" xmlns="http://www.w3.org/2000/svg">
<path d="M0 10.7741H0.722006V7.92392L1.83974 10.4095C1.97158 10.7091 2.15221 10.8168 2.50621 10.8168C2.8602 10.8168 3.03377 10.7103 3.16583 10.4095L4.28367 7.92392V10.7751H5.00578V7.92863C5.00578 7.65093 4.89449 7.51663 4.66548 7.44729C4.11705 7.27607 3.74904 7.42417 3.58253 7.79443L2.48566 10.2475L1.42325 7.79336C1.26359 7.4231 0.88873 7.275 0.340296 7.44622C0.111078 7.51567 0 7.64997 0 7.92756V10.7741ZM5.6059 8.45341H6.32769V10.0243C6.32095 10.1097 6.35509 10.3101 6.7506 10.3162C6.95242 10.3194 8.30804 10.3162 8.32067 10.3162V8.4456H9.04407C9.04728 8.4456 9.04332 10.9961 9.04343 11.007C9.04739 11.636 8.26289 11.7727 7.9014 11.7833H5.62163V11.2975L7.90547 11.2973C8.37011 11.2481 8.31532 11.0173 8.31532 10.9395V10.7501H6.78078C6.0668 10.7437 5.61221 10.4319 5.60654 10.0735C5.60601 10.0414 5.62195 8.46882 5.60611 8.4533L5.6059 8.45341Z" fill="#73F2A8"/>
<path d="M9.60059 10.7741H11.6764C11.9193 10.7741 12.1555 10.7232 12.3431 10.6352C12.6555 10.4918 12.8083 10.2973 12.8083 10.0427V9.51518C12.8083 9.30683 12.6347 9.1125 12.2946 8.98291C12.1141 8.91335 11.8919 8.87643 11.6767 8.87643H10.8019C10.5104 8.87643 10.3715 8.78847 10.3368 8.59413C10.3299 8.57102 10.3299 8.55133 10.3299 8.52929V8.20076C10.3299 8.18225 10.3299 8.16363 10.3368 8.14051C10.3715 7.99241 10.4479 7.95068 10.7047 7.92649C10.7256 7.92649 10.7533 7.92178 10.7743 7.92178H12.8362V7.44055H10.809C10.5174 7.44055 10.3646 7.45907 10.2257 7.50069C9.79492 7.63499 9.60743 7.84901 9.60743 8.21927V8.64047C9.60743 8.9645 9.97555 9.2422 10.5932 9.30694C10.6628 9.31154 10.7321 9.31614 10.8015 9.31614H11.5513C11.5791 9.31614 11.6069 9.31614 11.6277 9.32085C11.8567 9.33936 11.9541 9.38099 12.0234 9.46424C12.0662 9.50705 12.0791 9.54771 12.0791 9.59266V10.0139C12.0791 10.0648 12.0444 10.1296 11.975 10.1851C11.9125 10.2407 11.8083 10.2776 11.6694 10.2869C11.6416 10.2869 11.6209 10.2915 11.5931 10.2915H9.60059V10.7729V10.7741ZM17.3123 9.93638C17.3123 10.4316 17.6802 10.7093 18.423 10.7649C18.4923 10.7702 18.5618 10.7733 18.6313 10.7741H20.5128V10.2927H18.6174C18.1939 10.2927 18.0342 10.1862 18.0342 9.93167V7.44152H17.3121L17.3123 9.93638ZM13.2688 9.96142V8.24549C13.2688 7.80953 13.5749 7.5451 14.1801 7.46163C14.2447 7.45241 14.3098 7.44777 14.375 7.44772H15.7455C15.813 7.44776 15.8804 7.45241 15.9473 7.46163C16.5526 7.5451 16.8586 7.80942 16.8586 8.24549V9.96142C16.8586 10.3151 16.7286 10.5044 16.429 10.6278L17.1402 11.2698H16.3019L15.7265 10.7504L15.1472 10.7871H14.375C14.2428 10.7871 14.1037 10.7685 13.9506 10.7268C13.4904 10.6016 13.2688 10.3604 13.2688 9.96142ZM14.0482 9.91861C14.0482 9.94184 14.0551 9.96495 14.0621 9.99288C14.1049 10.1923 14.2916 10.3036 14.5758 10.3036H15.2317L14.6293 9.7597H15.4676L15.9919 10.2341C16.0888 10.1825 16.1525 10.1035 16.1739 10.0022C16.1808 9.97908 16.1808 9.95585 16.1808 9.93263V8.28733C16.1808 8.26882 16.1808 8.24453 16.1739 8.22238C16.1311 8.03693 15.9442 7.93024 15.666 7.93024H14.577C14.256 7.93024 14.0484 8.06935 14.0484 8.28733V9.9199L14.0482 9.91861Z" fill="#73F2A8"/>
<path d="M21.1481 6.64301C20.7043 6.63102 20.3652 6.67222 20.0754 6.79443C19.993 6.82921 19.8617 6.83007 19.8482 6.93333C19.8935 6.98074 19.9007 7.05158 19.9365 7.1099C20.0057 7.22194 20.1227 7.37208 20.2268 7.45062C20.3407 7.53655 20.458 7.62858 20.5803 7.70317C20.7975 7.83565 21.04 7.91131 21.2491 8.04389C21.3724 8.12201 21.4948 8.22046 21.6151 8.30885C21.6745 8.35252 21.7146 8.42036 21.7917 8.44765V8.43502C21.751 8.38333 21.7406 8.31228 21.7034 8.25845L21.5393 8.0944C21.3788 7.88038 21.1753 7.6945 20.9588 7.53901C20.7862 7.4151 20.3998 7.24773 20.3277 7.04676L20.3151 7.03414C20.4375 7.02022 20.5808 6.97603 20.6939 6.94585C20.8837 6.89502 21.0533 6.90808 21.2493 6.85757L21.5144 6.7818V6.73129C21.4153 6.62963 21.3447 6.49512 21.2367 6.4032C20.9542 6.16242 20.6457 5.92218 20.3282 5.72153C20.152 5.61024 19.9344 5.53812 19.7476 5.44384C19.6848 5.41216 19.5745 5.39568 19.5331 5.34282C19.4351 5.21783 19.3817 5.05924 19.306 4.91478C19.1476 4.60979 18.992 4.27656 18.8516 3.95563C18.7559 3.73679 18.6932 3.52095 18.574 3.32459C18.001 2.38246 17.3841 1.8138 16.4287 1.25499C16.2254 1.1362 15.9806 1.08912 15.7219 1.0278L15.3054 1.00255C15.2206 0.967232 15.1324 0.863431 15.0528 0.813136C14.7363 0.613024 13.9244 0.178237 13.6899 0.748929C13.5419 1.10988 13.9111 1.46205 14.0433 1.64504C14.136 1.77346 14.2547 1.91717 14.3209 2.06153C14.3644 2.15634 14.372 2.25148 14.4093 2.35185C14.501 2.59798 14.5808 2.86797 14.6995 3.09644C14.7594 3.21201 14.8255 3.33379 14.9014 3.43716C14.948 3.50062 15.0277 3.52855 15.0402 3.62657C14.9623 3.73572 14.9578 3.9048 14.9139 4.04306C14.7167 4.66501 14.7911 5.43795 15.078 5.89832C15.166 6.03957 15.3733 6.34263 15.6585 6.22641C15.9078 6.12475 15.8511 5.81014 15.9236 5.53234C15.9396 5.4692 15.9298 5.42319 15.9615 5.38092V5.39354L16.1886 5.84781C16.3567 6.11855 16.6552 6.40159 16.908 6.59261C17.0391 6.69159 17.1434 6.86281 17.3118 6.9207V6.90808H17.2992C17.2664 6.85671 17.215 6.83563 17.1729 6.79464C17.0742 6.6978 16.9643 6.57741 16.8826 6.46655C16.6525 6.15429 16.4494 5.81271 16.2643 5.45689C16.1759 5.28707 16.099 5.09969 16.0246 4.92687C15.9959 4.8602 15.9962 4.7595 15.9363 4.72494C15.8547 4.85164 15.7344 4.95394 15.6712 5.10354C15.5702 5.34261 15.5572 5.63411 15.5198 5.93652C15.4977 5.94444 15.5075 5.93898 15.4946 5.94915C15.3189 5.90677 15.257 5.72581 15.1917 5.57054C15.0265 5.17781 14.9959 4.5458 15.1412 4.094C15.1787 3.97714 15.3488 3.60881 15.28 3.50083C15.2472 3.39307 15.1388 3.32962 15.0781 3.24829C15.0032 3.14663 14.9281 3.01243 14.8762 2.89494C14.7409 2.58888 14.6778 2.24538 14.5354 1.93579C14.4674 1.7879 14.3524 1.6383 14.2578 1.50775C14.1532 1.36221 14.036 1.25477 13.955 1.0797C13.9261 1.0171 13.8869 0.917044 13.9297 0.852516C13.9338 0.833976 13.9431 0.816992 13.9566 0.803568C13.97 0.790143 13.987 0.780839 14.0055 0.776752C14.0787 0.720357 14.2827 0.795479 14.3589 0.827261C14.5611 0.911372 14.7302 0.991417 14.9016 1.10496C14.984 1.15846 15.0672 1.26504 15.1666 1.29437H15.28C15.4577 1.33524 15.6567 1.30721 15.8226 1.3575C16.116 1.44664 16.3788 1.58544 16.6177 1.73611C17.3451 2.1954 17.9398 2.84924 18.3466 3.63021C18.4121 3.75573 18.4404 3.87569 18.4981 4.00882C18.6144 4.27635 18.7609 4.55383 18.8767 4.81643C18.9922 5.07861 19.1046 5.34293 19.2679 5.56102C19.3537 5.67552 19.6852 5.73716 19.8358 5.80072C19.9414 5.84535 20.1144 5.8919 20.2144 5.95214C20.4054 6.06739 20.5906 6.20469 20.7698 6.33096C20.8594 6.3941 21.1347 6.53247 21.1484 6.64643L21.1481 6.64301Z" fill="#73F2A8"/>
<path fill-rule="evenodd" clip-rule="evenodd" d="M15.5071 1.83481C15.4145 1.8331 15.3491 1.84487 15.2799 1.86006V1.87269H15.2925C15.3366 1.96344 15.4145 2.02176 15.4691 2.09988L15.5954 2.36484L15.608 2.35221C15.6861 2.2971 15.722 2.20903 15.7214 2.07451C15.6901 2.04155 15.6855 2.00025 15.6583 1.96087C15.6222 1.90843 15.5513 1.87868 15.5069 1.83459L15.5071 1.83481Z" fill="#73F2A8"/>
<path fill-rule="evenodd" clip-rule="evenodd" d="M20.8517 10.279C20.8517 10.5968 21.1028 10.8111 21.3837 10.8111C21.6647 10.8111 21.9158 10.5968 21.9158 10.279C21.9158 9.96119 21.6647 9.74695 21.3837 9.74695C21.1028 9.74695 20.8517 9.96119 20.8517 10.279ZM21.7966 10.279C21.7966 10.5202 21.6122 10.7004 21.3835 10.7004C21.1524 10.7004 20.9705 10.5202 20.9705 10.279C20.9705 10.0378 21.1522 9.8576 21.3835 9.8576C21.612 9.8576 21.7966 10.0378 21.7966 10.279ZM21.5269 10.5827H21.646L21.4716 10.316C21.5652 10.3061 21.6361 10.2606 21.6361 10.15C21.6361 10.0265 21.558 9.97552 21.4077 9.97552H21.1707V10.5828H21.2729V10.3203H21.3679L21.5268 10.5828L21.5269 10.5827ZM21.2729 10.2349V10.0605H21.3906C21.4516 10.0605 21.5254 10.0718 21.5254 10.1429C21.5254 10.228 21.4588 10.2351 21.382 10.2351H21.2729V10.2349Z" fill="#73F2A8"/>
</svg>
