<svg width="15" height="15" viewBox="0 0 15 15" fill="none" xmlns="http://www.w3.org/2000/svg">
<path fill-rule="evenodd" clip-rule="evenodd" d="M8.62978 0C8.52919 0.00158039 8.42953 0.0195637 8.3347 0.0532464C8.50976 0.168194 8.63539 0.345003 8.68667 0.5486C8.69021 0.575062 8.69792 0.594101 8.70178 0.620563C8.70613 0.643122 8.7086 0.666006 8.70917 0.688977C8.72428 1.0233 8.62206 1.06525 8.55038 1.26275C8.49848 1.3826 8.4762 1.51326 8.48543 1.64362C8.49467 1.77397 8.53514 1.90016 8.60342 2.01142C8.6155 2.04083 8.6307 2.06885 8.64874 2.09501C8.50474 1.13366 9.30351 0.989416 9.45233 0.688977C9.46358 0.42694 9.2479 0.252033 9.07754 0.130373C8.94386 0.0458433 8.78905 0.0010861 8.63106 0.00129082L8.62978 0ZM9.83324 0.216535C9.82619 0.25287 9.82371 0.289947 9.82584 0.326901C9.82198 0.357235 9.82199 0.395314 9.81813 0.425649C9.81113 0.456475 9.80232 0.486862 9.79177 0.516652C9.78335 0.547618 9.77326 0.578105 9.76155 0.607977C9.74645 0.638312 9.73488 0.665096 9.71977 0.695431C9.70852 0.710598 9.7008 0.725765 9.68955 0.740932L9.66673 0.774494C9.64777 0.801278 9.62912 0.82774 9.61016 0.850652C9.58925 0.875197 9.56646 0.898071 9.54201 0.919066V0.922615C9.51919 0.941655 9.49637 0.964567 9.47001 0.983607C9.39062 1.04428 9.29965 1.08978 9.2164 1.1469C9.18964 1.16373 9.16437 1.18284 9.14086 1.20401C9.11516 1.22211 9.09107 1.24241 9.06886 1.26468C9.04406 1.28705 9.02116 1.31144 9.00039 1.33762C8.9793 1.36122 8.96027 1.38659 8.9435 1.41345C8.92453 1.44024 8.90589 1.4667 8.89046 1.49348C8.87503 1.52027 8.86442 1.54899 8.84932 1.58126C8.83758 1.6098 8.82749 1.639 8.8191 1.66871C8.80753 1.70292 8.80014 1.73325 8.79242 1.76552C8.78889 1.78069 8.78889 1.79973 8.78503 1.8149C8.78117 1.83006 8.78117 1.84523 8.77732 1.8604C8.77732 1.89073 8.77346 1.92494 8.77346 1.95527C8.77281 1.97815 8.7741 2.00103 8.77732 2.02369C8.77745 2.0563 8.78133 2.08878 8.78889 2.1205C8.79325 2.15119 8.79947 2.18158 8.80753 2.2115C8.8191 2.24377 8.8265 2.27249 8.83807 2.30283C8.84546 2.32187 8.85703 2.34091 8.86442 2.35607L7.99397 2.01401C7.84643 1.97205 7.70243 1.9343 7.55489 1.90009L7.31638 1.84297C7.08945 1.79747 6.85834 1.76326 6.62754 1.74035C6.62015 1.74035 6.61629 1.73648 6.60858 1.73648C6.38164 1.71389 6.15857 1.70227 5.93099 1.70227C5.76449 1.70227 5.59798 1.71002 5.43533 1.72131C5.20454 1.73648 4.97343 1.76681 4.74264 1.80489C4.68574 1.81264 4.62917 1.82393 4.57228 1.83523C4.45495 1.85814 4.34148 1.8846 4.23155 1.91139L4.06151 1.95689C4.00462 1.9798 3.95158 2.00626 3.89854 2.02917L3.77383 2.08597C3.76611 2.08984 3.75872 2.08984 3.75486 2.09371C3.71693 2.11275 3.68286 2.12792 3.64879 2.14696C3.63972 2.15002 3.6309 2.15379 3.62243 2.15826C3.58064 2.17729 3.53918 2.20021 3.50511 2.21925C3.47843 2.23054 3.45207 2.24571 3.42925 2.257C3.41831 2.26407 3.40693 2.27043 3.39517 2.27604C3.3611 2.29508 3.32703 2.31412 3.29681 2.33316C3.26555 2.35053 3.23519 2.36949 3.20585 2.38996C3.17949 2.409 3.15313 2.42416 3.13031 2.4432C3.12645 2.44708 3.1226 2.44708 3.11906 2.45095C3.09415 2.46743 3.07012 2.4852 3.04706 2.5042L3.03934 2.51162L2.98277 2.55744C2.97506 2.56099 2.96766 2.56874 2.95995 2.57261C2.94098 2.58778 2.92202 2.60682 2.90305 2.62198C2.89952 2.62941 2.8918 2.63328 2.88795 2.63715C2.86545 2.66006 2.84262 2.67878 2.8198 2.70169C2.81627 2.70169 2.81627 2.70556 2.81241 2.70944C2.78959 2.72815 2.76709 2.75107 2.74426 2.77398C2.74041 2.77785 2.74041 2.7814 2.73655 2.7814C2.71759 2.80044 2.69894 2.81948 2.67998 2.84239C2.67226 2.84981 2.66101 2.85756 2.6533 2.86498C2.63433 2.88789 2.61183 2.9108 2.58901 2.93339C2.58515 2.94114 2.57776 2.94501 2.5739 2.95243C2.54369 2.98277 2.51701 3.01343 2.48679 3.04376L2.47554 3.05505C2.41493 3.12084 2.35053 3.18302 2.28268 3.24126C2.21561 3.30135 2.14486 3.35718 2.07085 3.40842C1.995 3.46166 1.92331 3.50716 1.8436 3.55299C1.76642 3.59546 1.68689 3.63349 1.60541 3.6669C1.5257 3.70111 1.44245 3.73145 1.35919 3.75791C1.2004 3.79211 1.03776 3.85698 0.89761 3.86827C0.865805 3.87013 0.834139 3.8739 0.802786 3.87957C0.768713 3.88731 0.738498 3.89473 0.708283 3.90248L0.616995 3.93701C0.586071 3.94927 0.555814 3.96317 0.52635 3.97864C0.499671 3.99768 0.469456 4.01285 0.443098 4.03188C0.416172 4.05138 0.390808 4.07296 0.367239 4.09643C0.340352 4.11725 0.315098 4.14013 0.291701 4.16484C0.268879 4.19162 0.246057 4.21421 0.227414 4.241C0.20877 4.26778 0.185627 4.29812 0.170519 4.32845C0.150534 4.35613 0.132798 4.38537 0.117482 4.4159C0.102375 4.45011 0.0872671 4.48044 0.0756953 4.51465C0.0641236 4.54886 0.0531948 4.57919 0.0435516 4.6134C0.0352354 4.64328 0.0289 4.67368 0.0245869 4.7044C0.0245869 4.70828 0.0207296 4.71215 0.0207296 4.71602C0.0130151 4.75023 0.0130151 4.79573 0.00947933 4.81864C0.00447905 4.84354 0.00136293 4.86878 0.000157657 4.89415C-0.000479301 4.91071 0.00081525 4.92728 0.0040149 4.94353C0.00680193 4.96804 0.0118597 4.99224 0.0191224 5.01581C0.0262188 5.03924 0.0350287 5.06211 0.0454803 5.08423V5.0881C0.0581857 5.11164 0.0721345 5.13447 0.0872671 5.15651C0.102457 5.18017 0.118873 5.203 0.136447 5.22493C0.155412 5.24397 0.177912 5.26656 0.200734 5.2856C0.222859 5.30796 0.246959 5.32827 0.272736 5.34626C0.363381 5.4263 0.386203 5.45276 0.503528 5.51375C0.522493 5.52504 0.541457 5.53247 0.564279 5.54408C0.567815 5.54408 0.571672 5.54796 0.57553 5.54796C0.574903 5.55444 0.576248 5.56097 0.579387 5.56667C0.583667 5.59751 0.590003 5.62802 0.598352 5.658C0.605405 5.68936 0.615526 5.71995 0.628567 5.74932C0.639817 5.77191 0.647532 5.79483 0.658782 5.81774C0.661651 5.82447 0.665437 5.83077 0.670032 5.83645C0.68514 5.86711 0.700247 5.89357 0.715676 5.92004C0.731105 5.9465 0.753284 5.97328 0.772249 6.00007C0.791214 6.02685 0.814036 6.04944 0.836537 6.07203C0.859037 6.09462 0.882181 6.11398 0.908538 6.13657C0.910676 6.13854 0.913374 6.13978 0.916253 6.14012C0.937954 6.15914 0.960705 6.17692 0.984398 6.19337C1.01071 6.21215 1.03856 6.22867 1.06765 6.24274C1.09535 6.25916 1.12438 6.27319 1.15444 6.28469C1.17886 6.29582 1.20426 6.30468 1.2303 6.31115C1.23415 6.31503 1.23769 6.31503 1.2454 6.3189C1.26051 6.32277 1.27948 6.32632 1.29458 6.33019C1.28333 6.53544 1.27948 6.72938 1.30969 6.79779C1.34376 6.87363 1.51091 6.64225 1.67677 6.37634C1.65427 6.63838 1.63916 6.94624 1.67677 7.03724C1.71438 7.12825 1.94549 6.83587 2.14253 6.5093C4.82589 5.88615 7.27492 7.74784 7.53207 10.3776C7.48289 9.96709 6.97952 9.73893 6.74873 9.7967C6.63526 10.0778 6.44207 10.4389 6.13189 10.6632C6.15892 10.4094 6.14612 10.153 6.09396 9.90319C6.0093 10.2527 5.84932 10.5793 5.6253 10.86C5.26562 10.8865 4.90625 10.7119 4.71692 10.4495C4.70182 10.4382 4.69796 10.4153 4.68671 10.4002C4.67486 10.3743 4.66466 10.3476 4.65617 10.3204C4.64513 10.295 4.63756 10.2682 4.63367 10.2407C4.63038 10.213 4.62909 10.1851 4.62981 10.1572V10.1007C4.6343 10.0737 4.64064 10.0471 4.64878 10.021C4.65582 9.99375 4.66462 9.96702 4.67514 9.94095C4.68896 9.9136 4.7042 9.88699 4.72078 9.86124C4.78507 9.67891 4.78507 9.53079 4.66774 9.44334C4.6449 9.42854 4.62081 9.4158 4.59574 9.40526C4.58063 9.40138 4.56167 9.39396 4.54656 9.39009C4.53145 9.38622 4.5276 9.38267 4.51635 9.37879C4.49006 9.37016 4.46321 9.36336 4.43599 9.35846C4.4102 9.3509 4.38346 9.34709 4.35659 9.34717C4.32905 9.34267 4.30124 9.34008 4.27334 9.33942C4.25438 9.33942 4.23541 9.3433 4.21645 9.3433C4.18831 9.34316 4.16029 9.34696 4.13319 9.35459C4.07861 9.36127 4.02519 9.37538 3.9744 9.39654C3.94772 9.40784 3.92522 9.41913 3.89854 9.43075C3.87187 9.44237 3.85322 9.45721 3.82686 9.46851C2.94484 10.0462 3.47103 11.3989 4.07276 11.7904C3.84551 11.832 3.61472 11.8817 3.55043 11.9311L3.54271 11.9385C3.7061 12.0368 3.877 12.1219 4.0538 12.1931C4.29616 12.2728 4.55331 12.3451 4.6671 12.3754V12.3793C4.98066 12.4439 5.30129 12.4669 5.6208 12.4477C7.29742 12.3299 8.67156 11.0494 8.92132 9.36234C8.92871 9.39654 8.93643 9.42688 8.94382 9.46108C8.95539 9.5295 8.9705 9.60178 8.97789 9.67375V9.67762C8.98561 9.71183 8.98946 9.74603 8.99332 9.77637V9.79154C8.99686 9.82574 9.00071 9.85995 9.00071 9.89028C9.00457 9.93223 9.00843 9.97419 9.00843 10.0158V10.0765C9.00843 10.0955 9.01196 10.1184 9.01196 10.1375C9.01196 10.1565 9.00843 10.183 9.00843 10.2059V10.2591C9.00843 10.2856 9.00457 10.3085 9.00457 10.335C9.00506 10.3515 9.00377 10.3681 9.00071 10.3843C9.00071 10.4111 8.99686 10.4376 8.99686 10.4679C8.99369 10.479 8.99239 10.4906 8.993 10.5021C8.98946 10.5325 8.98561 10.5593 8.98175 10.5896C8.98238 10.6011 8.98107 10.6127 8.97789 10.6238C8.97403 10.6619 8.96664 10.6961 8.96278 10.7342V10.7416C8.95539 10.7758 8.94768 10.8139 8.94028 10.8481V10.8594C8.93257 10.8936 8.92486 10.9278 8.91746 10.962C8.91746 10.9659 8.9136 10.9733 8.9136 10.9772C8.90663 11.0118 8.89783 11.0461 8.88725 11.0798V11.0911C8.87568 11.1292 8.86442 11.1634 8.8551 11.1976C8.85306 11.1997 8.85181 11.2024 8.85157 11.2053C8.83999 11.2431 8.82874 11.2811 8.81749 11.3192C8.80624 11.3573 8.79082 11.3915 8.77571 11.4293C8.7606 11.467 8.74935 11.5054 8.73424 11.5396C8.71914 11.5738 8.70371 11.6119 8.6886 11.6497H8.68506C8.66963 11.6839 8.65453 11.722 8.63556 11.7562C8.63266 11.7653 8.62889 11.7742 8.62431 11.7826C8.62045 11.7865 8.62045 11.7904 8.61692 11.7942C8.36681 12.2975 8.00275 12.7349 7.55393 13.0715C7.52371 13.0906 7.49317 13.1135 7.46296 13.1361C7.45557 13.1438 7.44399 13.1477 7.4366 13.1551C7.40992 13.1741 7.38356 13.1932 7.35335 13.2122L7.3646 13.2351H7.36846L7.52725 13.2122H7.5311C7.62946 13.197 7.72814 13.178 7.8265 13.159C7.85464 13.1544 7.88244 13.1481 7.90976 13.1399L7.96279 13.1286C7.98915 13.1248 8.01551 13.1173 8.04219 13.1135C8.06887 13.1096 8.08751 13.1018 8.11033 13.0944C8.48542 13.0026 8.85251 12.8805 9.20804 12.7294C8.59986 13.5613 7.79096 14.2243 6.85737 14.656C7.2943 14.627 7.72698 14.5519 8.14826 14.432C9.66881 13.9831 10.9531 12.953 11.7249 11.5632C11.5691 12.4426 11.2217 13.2765 10.7075 14.0054C11.4007 13.5465 11.9904 12.9469 12.4388 12.2453C12.8873 11.5438 13.1844 10.7557 13.3112 9.93191C13.4403 10.5333 13.4772 11.151 13.4208 11.7636C16.1543 7.93856 13.6487 3.97089 12.6005 2.92597C12.5966 2.91823 12.5928 2.91468 12.5928 2.90693C12.5892 2.9108 12.5892 2.9108 12.5892 2.91468C12.5892 2.9108 12.5892 2.9108 12.5854 2.90693C12.5854 2.95243 12.5815 2.99826 12.5777 3.04376C12.5664 3.13121 12.5552 3.21479 12.5401 3.29837C12.5249 3.38196 12.4983 3.46554 12.4758 3.54912C12.4533 3.6327 12.4192 3.71241 12.3851 3.79244C12.3511 3.87247 12.3131 3.94798 12.2717 4.02414C12.2302 4.1003 12.1845 4.17226 12.1354 4.24067C12.0862 4.30909 12.0331 4.38137 11.9801 4.44592C11.9271 4.51046 11.8628 4.575 11.802 4.63599C11.7644 4.6702 11.7304 4.70053 11.6924 4.73087C11.6622 4.75733 11.6355 4.78024 11.6053 4.80702C11.5376 4.86048 11.4669 4.90994 11.3935 4.95515C11.3215 5.00065 11.246 5.04615 11.1701 5.08423C11.0942 5.12231 11.0094 5.15651 10.9316 5.19072C10.8538 5.22493 10.7689 5.24752 10.6857 5.27043C10.6024 5.29334 10.5153 5.31238 10.4321 5.32755C10.3488 5.34271 10.2579 5.35014 10.1749 5.35788C10.1145 5.36175 10.0537 5.3653 9.99331 5.3653C9.9062 5.3653 9.81909 5.35788 9.73616 5.35014C9.56282 5.33385 9.39163 5.29946 9.2254 5.24752H9.22154C9.30479 5.24009 9.38805 5.23235 9.4713 5.21718C9.55455 5.20201 9.64166 5.18298 9.72491 5.16039C9.80816 5.1378 9.89142 5.11069 9.97081 5.08035C10.0523 5.04953 10.1319 5.01408 10.2093 4.97418C10.2887 4.93611 10.3607 4.89415 10.4366 4.84865C10.5124 4.80315 10.5803 4.7499 10.6484 4.69666C10.7162 4.64371 10.7806 4.58659 10.8413 4.52562C10.9042 4.46725 10.9636 4.40506 11.019 4.33942C11.0759 4.27101 11.1286 4.2026 11.1797 4.13418C11.1871 4.12289 11.1948 4.10772 11.2022 4.09643C11.2402 4.03543 11.2781 3.97477 11.3122 3.91377C11.3536 3.83794 11.3916 3.76178 11.4256 3.68207C11.4597 3.60236 11.4899 3.52265 11.5166 3.43875C11.5433 3.35485 11.5619 3.27546 11.5809 3.19188C11.5999 3.1083 11.6111 3.02085 11.6185 2.93727C11.6259 2.85369 11.6339 2.76268 11.6339 2.6791C11.6339 2.61843 11.6301 2.55777 11.6262 2.49677C11.6185 2.40932 11.6072 2.32574 11.596 2.24216C11.5847 2.15858 11.5619 2.07112 11.5391 1.98754C11.5163 1.90396 11.4861 1.82426 11.4558 1.74455C11.4244 1.66429 11.389 1.58567 11.3498 1.50897C11.3083 1.43281 11.2665 1.35698 11.2212 1.28308C11.1759 1.20918 11.1228 1.14238 11.0698 1.07396C11.0168 1.00555 10.9563 0.944882 10.8956 0.880341C10.8654 0.850007 10.8313 0.8158 10.7972 0.785466C10.6269 0.652188 10.4491 0.527301 10.2714 0.413063C10.2469 0.398769 10.2216 0.38605 10.1955 0.374984C10.0832 0.305966 9.96222 0.252249 9.83581 0.215245L9.83324 0.216535Z" fill="#73F2A8"/>
</svg>
