<svg width="14" height="14" viewBox="0 0 14 14" fill="none" xmlns="http://www.w3.org/2000/svg">
<path d="M6.17085 0.00355396C6.14245 0.00613553 6.05208 0.015171 5.97075 0.0216249C4.09497 0.190718 2.33795 1.20269 1.22513 2.75809C0.605467 3.62291 0.209138 4.60391 0.0593848 5.64299C0.00645487 6.0057 0 6.11283 0 6.60462C0 7.09641 0.00645487 7.20355 0.0593848 7.56626C0.418275 10.0459 2.18304 12.1292 4.5765 12.9011C5.0051 13.0392 5.45694 13.1334 5.97075 13.1902C6.17085 13.2121 7.03581 13.2121 7.23591 13.1902C8.12281 13.0921 8.87415 12.8727 9.61517 12.4945C9.72878 12.4364 9.75072 12.4209 9.73523 12.408C9.7249 12.4002 9.24079 11.751 8.65985 10.9662L7.60383 9.53986L6.28059 7.58175C5.55248 6.50523 4.95347 5.62492 4.9483 5.62492C4.94314 5.62363 4.93797 6.49362 4.93539 7.55593C4.93152 9.41595 4.93023 9.49082 4.90699 9.5347C4.87343 9.59795 4.84761 9.62377 4.79339 9.65216C4.75207 9.67282 4.71593 9.67669 4.52099 9.67669H4.29765L4.23827 9.63926C4.19954 9.61473 4.17114 9.58246 4.15177 9.54503L4.12466 9.48694L4.12724 6.89892L4.13112 4.30961L4.17114 4.25927C4.19179 4.23216 4.23568 4.19731 4.26667 4.18053C4.3196 4.15471 4.34025 4.15213 4.56359 4.15213C4.82695 4.15213 4.87084 4.16246 4.93926 4.23733C4.95863 4.25798 5.67512 5.33707 6.53233 6.63689C7.38953 7.93671 8.56174 9.71154 9.13751 10.5828L10.1832 12.1666L10.2361 12.1318C10.7048 11.8271 11.2005 11.3934 11.5929 10.9417C12.4282 9.9826 12.9665 8.81315 13.1473 7.56626C13.2002 7.20355 13.2067 7.09641 13.2067 6.60462C13.2067 6.11283 13.2002 6.0057 13.1473 5.64299C12.7884 3.16339 11.0236 1.08007 8.63016 0.308179C8.20801 0.171356 7.75875 0.0771286 7.25527 0.0203342C7.13134 0.00742631 6.278 -0.00677231 6.17085 0.00355396ZM8.87415 3.99724C8.93612 4.02822 8.98647 4.08759 9.00454 4.14955C9.01487 4.18311 9.01745 4.90079 9.01487 6.51814L9.01099 8.83897L8.60176 8.21165L8.19123 7.58433V5.89727C8.19123 4.80656 8.19639 4.19344 8.20414 4.16375C8.22479 4.09147 8.26998 4.03467 8.33194 4.00111C8.38487 3.97401 8.40424 3.97142 8.60692 3.97142C8.79798 3.97142 8.83155 3.974 8.87415 3.99724Z" fill="#73F2A8"/>
</svg>
