<svg width="12" height="13" viewBox="0 0 12 13" fill="none" xmlns="http://www.w3.org/2000/svg">
<path d="M5.50922 12.4334C5.34391 12.4334 5.17614 12.389 5.03059 12.3051L3.50832 11.4046C3.28136 11.2763 3.39237 11.2319 3.4664 11.2072C3.76983 11.1012 3.83151 11.079 4.1547 10.8939C4.18927 10.8742 4.23368 10.8816 4.2682 10.9038L5.43765 11.5971C5.4796 11.6217 5.53876 11.6217 5.57825 11.5971L10.1352 8.967C10.1772 8.94232 10.2042 8.89299 10.2042 8.84367V3.5836C10.2042 3.53178 10.1772 3.48492 10.1327 3.45781L5.57828 0.830205C5.53636 0.805528 5.47962 0.805528 5.43767 0.830205L0.885696 3.46024C0.84126 3.48492 0.81415 3.53424 0.81415 3.58606V8.84367C0.81415 8.89299 0.84126 8.94232 0.885696 8.96457L2.13413 9.68498C2.81262 10.023 3.22708 9.62576 3.22708 9.22364V4.03261C3.22708 3.95861 3.28628 3.90187 3.36034 3.90187H3.93766C4.0092 3.90187 4.07086 3.95861 4.07086 4.03261V9.2261C4.07086 10.1291 3.57741 10.6472 2.72134 10.6472C2.45732 10.6472 2.25008 10.6472 1.67276 10.361L0.478635 9.67266C0.182556 9.5024 0 9.18413 0 8.84123V3.5836C0 3.24314 0.182556 2.92241 0.478635 2.75218L5.03059 0.122118C5.31923 -0.0407061 5.70167 -0.0407061 5.98786 0.122118L10.5448 2.75461C10.8409 2.92484 11.0234 3.24311 11.0234 3.58606V8.84367C11.0234 9.18413 10.8409 9.5024 10.5448 9.67511L5.98786 12.3051C5.84228 12.389 5.67694 12.4334 5.50922 12.4334ZM9.18786 7.24988C9.18786 6.26545 8.52169 6.00394 7.12282 5.81892C5.70659 5.63139 5.56352 5.53517 5.56352 5.20458C5.56352 4.93074 5.68443 4.56557 6.73297 4.56557C7.66808 4.56557 8.01349 4.76789 8.15655 5.39951C8.16891 5.4587 8.22323 5.50311 8.28483 5.50311H8.87705C8.91399 5.50311 8.94854 5.48833 8.97324 5.46116C8.99795 5.43405 9.01025 5.39702 9.00771 5.35999C8.91648 4.27201 8.19356 3.76621 6.73297 3.76621C5.43278 3.76621 4.6581 4.31393 4.6581 5.2342C4.6581 6.23093 5.4303 6.50731 6.67621 6.63059C8.16891 6.77619 8.28483 6.99578 8.28483 7.28937C8.28483 7.79766 7.87534 8.0147 6.91558 8.0147C5.70913 8.0147 5.44511 7.71125 5.35629 7.11176C5.34642 7.04762 5.29212 7.00075 5.22555 7.00075H4.63585C4.56184 7.00075 4.50514 7.05997 4.50514 7.13147C4.50514 7.89883 4.92209 8.81415 6.91807 8.81415C8.35887 8.81166 9.18786 8.24164 9.18786 7.24988Z" fill="#73F2A8"/>
</svg>
