<svg width="20" height="11" viewBox="0 0 20 11" fill="none" xmlns="http://www.w3.org/2000/svg">
<path d="M9.92333 0C7.23899 0 4.805 0.558738 3.00736 1.49157C1.20973 2.42441 0 3.76827 0 5.34333C0 6.9184 1.20973 8.26226 3.00736 9.19509C4.805 10.1279 7.23899 10.6867 9.92333 10.6867C12.6077 10.6867 15.0417 10.1279 16.8393 9.19509C18.6369 8.26226 19.8467 6.9184 19.8467 5.34333C19.8467 3.76827 18.6369 2.42441 16.8393 1.49157C15.0417 0.558738 12.6077 0 9.92333 0ZM9.92333 0.822051C12.4914 0.822051 14.8123 1.36634 16.4565 2.2205C18.1007 3.07306 19.0197 4.19375 19.0197 5.34333C19.0197 6.49292 18.1007 7.61361 16.4565 8.46616C14.8123 9.32033 12.4914 9.86462 9.92333 9.86462C7.35528 9.86462 5.03435 9.32033 3.39015 8.46616C1.74595 7.61361 0.826944 6.49292 0.826944 5.34333C0.826944 4.19375 1.74595 3.07306 3.39015 2.2205C5.03435 1.36634 7.35528 0.822051 9.92333 0.822051ZM8.89288 1.6441L7.85597 6.57641H8.94134L9.46464 4.11026H10.332C10.6081 4.11026 10.7923 4.15521 10.8779 4.24673C10.9619 4.33825 10.9796 4.51165 10.9312 4.76051L10.5355 6.57641H11.637L12.0666 4.6128C12.1587 4.14237 12.0892 3.79717 11.8599 3.58684C11.6257 3.3733 11.2138 3.28821 10.6001 3.28821H9.63261L9.97663 1.6441H8.89288ZM4.13472 3.28821L3.29647 7.80949H4.38991L4.60795 6.57641H5.28954C6.71408 6.57641 7.48934 6.24887 7.77845 5.03346C8.02718 3.98823 7.39082 3.28821 6.33937 3.28821H4.13472ZM12.8176 3.28821L11.9794 7.80949H13.0728L13.2909 6.57641H13.9725C15.397 6.57641 16.1723 6.24887 16.4614 5.03346C16.7101 3.98823 16.0737 3.28821 15.0223 3.28821H12.8176ZM5.07473 4.11026H5.9259C6.63332 4.11026 6.78191 4.42655 6.74477 4.77817C6.64947 5.68532 6.08095 5.75436 5.47043 5.75436H4.76139L5.07473 4.11026ZM13.7576 4.11026H14.6088C15.3162 4.11026 15.4648 4.42655 15.4277 4.77817C15.3324 5.68532 14.7639 5.75436 14.1533 5.75436H13.4443L13.7576 4.11026Z" fill="#73F2A8"/>
</svg>
