<svg width="15" height="15" viewBox="0 0 15 15" fill="none" xmlns="http://www.w3.org/2000/svg">
<path d="M10.6279 10.6846C10.7176 9.93775 10.6906 9.82878 11.2465 9.94931L11.388 9.96197C11.8156 9.98123 12.3748 9.89317 12.7089 9.74072C13.4161 9.41269 13.8355 8.86452 13.1382 9.00872C11.5476 9.33674 11.432 8.79793 11.432 8.79793C13.1123 6.30474 13.8151 3.1401 13.2081 2.36572C11.5547 0.25229 8.69224 1.25177 8.64436 1.27818L8.62895 1.28094C8.31524 1.21489 7.9685 1.17637 7.56673 1.17086C6.84684 1.15985 6.30087 1.35964 5.88589 1.6739C5.88589 1.6739 0.780083 -0.429622 1.01729 4.31954C1.06793 5.33003 2.46477 11.9697 4.1324 9.96087C4.74277 9.22667 5.33167 8.6064 5.33167 8.6064C5.62336 8.80068 5.97395 8.89975 6.34105 8.86397L6.36967 8.83976C6.3612 8.93489 6.36508 9.03072 6.38123 9.12485C5.95194 9.60477 6.07852 9.68898 5.21994 9.86565C4.35145 10.0445 4.8622 10.3632 5.19462 10.4468C5.5986 10.5481 6.53313 10.6912 7.16496 9.80731L7.13964 9.90803C7.30805 10.0429 7.2965 10.8767 7.32126 11.4722C7.34603 12.0677 7.38511 12.6241 7.50674 12.9516C7.62837 13.2791 7.77092 14.1239 8.89918 13.8872C9.84197 13.6852 10.563 13.3941 10.629 10.6896" fill="#73F2A8"/>
<path d="M10.6279 10.6846C10.7176 9.93775 10.6906 9.82878 11.2465 9.94931L11.388 9.96197C11.8156 9.98123 12.3748 9.89317 12.7089 9.74072C13.4161 9.41269 13.8355 8.86452 13.1382 9.00872C11.5476 9.33674 11.432 8.79793 11.432 8.79793C13.1123 6.30474 13.8151 3.1401 13.2081 2.36572C11.5547 0.25229 8.69224 1.25177 8.64436 1.27818L8.62895 1.28094C8.31524 1.21489 7.9685 1.17637 7.56673 1.17086C6.84684 1.15985 6.30087 1.35964 5.88589 1.6739C5.88589 1.6739 0.780083 -0.429622 1.01729 4.31954C1.06793 5.33003 2.46477 11.9697 4.1324 9.96086C4.74277 9.22667 5.33167 8.6064 5.33167 8.6064C5.62336 8.80068 5.97395 8.89975 6.34105 8.86397L6.36967 8.83976C6.3612 8.93489 6.36508 9.03072 6.38123 9.12485C5.95194 9.60477 6.07852 9.68898 5.21994 9.86565C4.35145 10.0445 4.8622 10.3632 5.19462 10.4468C5.5986 10.5481 6.53313 10.6912 7.16496 9.80731L7.13964 9.90803C7.30805 10.0429 7.2965 10.8767 7.32126 11.4722C7.34603 12.0677 7.38511 12.6241 7.50674 12.9516C7.62837 13.2791 7.77092 14.1239 8.89918 13.8872C9.84197 13.6852 10.563 13.3941 10.629 10.6896" stroke="#73F2A8" stroke-width="1.6404"/>
<path d="M7.23276 9.49088C7.18873 11.0572 7.24377 12.6346 7.39678 13.0133C7.54978 13.3919 7.87835 14.1415 9.00717 13.9005C9.94996 13.6985 10.2934 13.3072 10.442 12.4436L10.7904 9.68241M5.87995 1.63871C5.87995 1.63871 0.770286 -0.450502 1.00805 4.29866C1.05868 5.30915 2.45553 11.9488 4.12316 9.93999C4.73187 9.20634 5.28224 8.6323 5.28224 8.6323M8.63952 1.2573C8.4634 1.31234 11.4816 0.153807 13.1977 2.34594C13.8031 3.12032 13.1014 6.28496 11.4211 8.77815" stroke="#252525" stroke-width="0.546547" stroke-linecap="round" stroke-linejoin="round"/>
<path d="M11.4216 8.77706C11.4216 8.77706 11.5317 9.31642 13.1278 8.9873C13.8251 8.8431 13.4052 9.39128 12.6985 9.7193C12.1184 9.98898 10.8173 10.0578 10.7958 9.68628C10.7408 8.72588 11.4805 9.01757 11.4271 8.77706C11.3787 8.56021 11.0474 8.34777 10.8294 7.81721C10.6384 7.3549 8.20965 3.80499 11.5031 4.3317C11.6242 4.30693 10.6445 1.19457 7.56241 1.14944C4.48032 1.10431 4.57774 4.93876 4.57774 4.93876" stroke="#252525" stroke-width="0.546547" stroke-linecap="round" stroke-linejoin="bevel"/>
<path d="M6.37009 9.10622C5.9408 9.58615 6.06738 9.67036 5.2088 9.84703C4.34031 10.0259 4.85106 10.3446 5.18348 10.4282C5.58746 10.5295 6.52199 10.6726 7.15382 9.78814C7.34645 9.51845 7.15272 9.08916 6.88854 8.98019C6.76085 8.92735 6.59024 8.86131 6.37119 9.10677L6.37009 9.10622Z" stroke="#252525" stroke-width="0.546547" stroke-linejoin="round"/>
<path d="M6.34214 9.09794C6.29811 8.8156 6.4346 8.48042 6.58045 8.08746C6.7995 7.49856 7.30474 6.90966 6.90076 5.04004C6.59971 3.6476 4.57819 4.75 4.57819 4.93878C4.57819 5.12755 4.66955 5.89642 4.54517 6.79078C4.38171 7.95867 5.28817 8.94604 6.33168 8.84532" stroke="#252525" stroke-width="0.546547" stroke-linecap="round" stroke-linejoin="round"/>
<path d="M5.86108 4.91059C5.85172 4.97498 5.97941 5.14725 6.14507 5.17036C6.31073 5.19348 6.45218 5.05919 6.46154 4.99424C6.47089 4.9293 6.34321 4.85885 6.17754 4.83574C6.01188 4.81262 5.86933 4.84675 5.86108 4.91059Z" fill="#252525" stroke="#252525" stroke-width="0.182437"/>
<path d="M10.9048 4.77912C10.9136 4.84351 10.7865 5.01578 10.6208 5.03889C10.4551 5.06201 10.3126 4.92772 10.3043 4.86277C10.2961 4.79783 10.4227 4.72738 10.5883 4.70427C10.754 4.68115 10.8965 4.71528 10.9048 4.77912Z" fill="#252525" stroke="#252525" stroke-width="0.0908367"/>
<path d="M11.497 4.33276C11.5245 4.83911 11.388 5.18309 11.3704 5.7219C11.3451 6.50454 11.7435 7.40054 11.1431 8.29765" stroke="#252525" stroke-width="0.546547" stroke-linecap="round" stroke-linejoin="round"/>
</svg>
