<svg width="45" height="30" viewBox="0 0 45 30" fill="none" xmlns="http://www.w3.org/2000/svg">
<path d="M29.579 17.1175C29.1075 18.6172 28.1699 19.9275 26.9027 20.8578C25.6354 21.7882 24.1044 22.2901 22.5323 22.2907C21.5631 22.2907 20.6033 22.0997 19.7079 21.7287C18.8125 21.3577 17.999 20.8138 17.3138 20.1283C16.6286 19.4428 16.0852 18.629 15.7146 17.7334C15.3441 16.8378 15.1536 15.8779 15.1541 14.9087C15.1515 14.2582 15.2345 13.6101 15.4008 12.9812C16.3935 12.7971 17.4021 12.7132 18.4115 12.7307C21.6053 12.7025 24.7374 13.6112 27.4203 15.3443C28.1949 15.8649 28.9178 16.4587 29.579 17.1175Z" fill="black"/>
<path d="M29.8951 14.9087C29.8956 15.2764 29.8685 15.6436 29.8142 16.0073C24.0126 10.3908 16.2412 11.8633 15.7439 11.9674C16.3171 10.6487 17.2632 9.52619 18.4658 8.73793C19.6684 7.94966 21.0751 7.52996 22.5131 7.53046C23.4823 7.52995 24.4421 7.72043 25.3377 8.09099C26.2334 8.46156 27.0472 9.00493 27.7327 9.69011C28.4183 10.3753 28.9621 11.1888 29.3331 12.0843C29.7041 12.9797 29.8951 13.9394 29.8951 14.9087Z" fill="black"/>
<path d="M29.8142 16.0073L29.8959 16.089L29.8064 16.0618L29.8142 16.0073Z" fill="black"/>
<path d="M0.320557 0.052002V29.7807H44.7093V0.052002H0.320557ZM22.513 25.9413L4.99651 14.9164L22.5092 3.73728L39.9948 14.9164L22.513 25.9413Z" fill="black"/>
<path d="M29.579 17.1175C29.1075 18.6172 28.1699 19.9275 26.9027 20.8578C25.6354 21.7882 24.1044 22.2901 22.5323 22.2907C21.5631 22.2907 20.6033 22.0997 19.7079 21.7287C18.8125 21.3577 17.999 20.8138 17.3138 20.1283C16.6286 19.4428 16.0852 18.629 15.7146 17.7334C15.3441 16.8378 15.1536 15.8779 15.1541 14.9087C15.1515 14.2582 15.2345 13.6101 15.4008 12.9812C16.3935 12.7971 17.4021 12.7132 18.4115 12.7307C21.6053 12.7025 24.7374 13.6112 27.4203 15.3443C28.1949 15.8649 28.9178 16.4587 29.579 17.1175Z" fill="black"/>
<path d="M29.8951 14.9087C29.8956 15.2764 29.8685 15.6436 29.8142 16.0073C24.0126 10.3908 16.2412 11.8633 15.7439 11.9674C16.3171 10.6487 17.2632 9.52619 18.4658 8.73793C19.6684 7.94966 21.0751 7.52996 22.5131 7.53046C23.4823 7.52995 24.4421 7.72043 25.3377 8.09099C26.2334 8.46156 27.0472 9.00493 27.7327 9.69011C28.4183 10.3753 28.9621 11.1888 29.3331 12.0843C29.7041 12.9797 29.8951 13.9394 29.8951 14.9087Z" fill="black"/>
<path d="M29.579 17.1175C29.1075 18.6172 28.1699 19.9275 26.9027 20.8578C25.6354 21.7882 24.1044 22.2901 22.5323 22.2907C21.5631 22.2907 20.6033 22.0997 19.7079 21.7287C18.8125 21.3577 17.999 20.8138 17.3138 20.1283C16.6286 19.4428 16.0852 18.629 15.7146 17.7334C15.3441 16.8378 15.1536 15.8779 15.1541 14.9087C15.1515 14.2582 15.2345 13.6101 15.4008 12.9812C16.3935 12.7971 17.4021 12.7132 18.4115 12.7307C21.6053 12.7025 24.7374 13.6112 27.4203 15.3443C28.1949 15.8649 28.9178 16.4587 29.579 17.1175Z" fill="black"/>
<path d="M29.8951 14.9087C29.8956 15.2764 29.8685 15.6436 29.8142 16.0073C24.0126 10.3908 16.2412 11.8633 15.7439 11.9674C16.3171 10.6487 17.2632 9.52619 18.4658 8.73793C19.6684 7.94966 21.0751 7.52996 22.5131 7.53046C23.4823 7.52995 24.4421 7.72043 25.3377 8.09099C26.2334 8.46156 27.0472 9.00493 27.7327 9.69011C28.4183 10.3753 28.9621 11.1888 29.3331 12.0843C29.7041 12.9797 29.8951 13.9394 29.8951 14.9087Z" fill="black"/>
<path d="M29.8142 16.0073L29.8959 16.089L29.8064 16.0618L29.8142 16.0073Z" fill="black"/>
<path d="M29.5791 17.1175L15.4009 13.0005C16.3935 12.8163 17.4021 12.7324 18.4115 12.7499C21.6054 12.7217 24.7375 13.6304 27.4203 15.3635C28.1941 15.8781 28.917 16.4654 29.5791 17.1175Z" fill="black"/>
<path d="M18.3999 12.7499C21.5938 12.7217 24.7258 13.6304 27.4087 15.3635L18.3999 12.7499Z" fill="black"/>
<path d="M29.8959 16.089L29.8064 16.0618V16.0073L29.8959 16.089Z" fill="black"/>
</svg>
