<svg width="14" height="13" viewBox="0 0 14 13" fill="none" xmlns="http://www.w3.org/2000/svg">
<path d="M7.27016 7.52812C7.89129 7.52812 8.39482 7.02459 8.39482 6.40346C8.39482 5.78233 7.89129 5.27881 7.27016 5.27881C6.64903 5.27881 6.14551 5.78233 6.14551 6.40346C6.14551 7.02459 6.64903 7.52812 7.27016 7.52812Z" fill="#D9D9D9"/>
<path d="M7.2703 8.98001C5.69085 8.98001 4.3108 8.79406 3.27799 8.44009C2.60813 8.21157 2.03908 7.90688 1.63358 7.55963C1.20343 7.19221 0.974915 6.79119 0.974915 6.40361C0.974915 5.65981 1.7904 4.9317 3.15926 4.45674C4.27943 4.06692 5.74014 3.84961 7.26806 3.84961C8.76909 3.84961 10.2096 4.0602 11.3231 4.44554C11.975 4.66958 12.5239 4.96082 12.9137 5.28343C13.3372 5.63741 13.5612 6.02499 13.5612 6.40361C13.5612 7.17653 12.6494 7.95841 11.1797 8.44457C10.1402 8.78958 8.75117 8.98001 7.2703 8.98001ZM7.2703 4.38729C5.82079 4.38729 4.38697 4.59789 3.33848 4.96306C2.07941 5.40217 1.51484 6.00259 1.51484 6.40361C1.51484 6.82031 2.12197 7.47674 3.45274 7.93153C4.42953 8.26534 5.75134 8.44233 7.2703 8.44233C8.69516 8.44233 10.0237 8.2631 11.0117 7.93377C12.394 7.4745 13.0258 6.81807 13.0258 6.40361C13.0258 6.19077 12.8645 5.93986 12.571 5.69566C12.2327 5.41337 11.7398 5.15573 11.1506 4.95186C10.0909 4.58892 8.71308 4.38729 7.2703 4.38729Z" fill="#D9D9D9"/>
<path d="M4.71858 12.0089C4.49006 12.0089 4.28843 11.9596 4.11816 11.8611C3.47518 11.4892 3.25115 10.4183 3.52223 8.99564C3.74403 7.82842 4.28619 6.45733 5.05015 5.13328C5.80067 3.83388 6.70129 2.6913 7.59071 1.91838C8.11047 1.46583 8.63695 1.13426 9.1119 0.95951C9.62943 0.76908 10.0775 0.76908 10.4046 0.95727C11.0745 1.34261 11.2962 2.52551 10.9826 4.03999C10.7608 5.11536 10.2321 6.41252 9.49276 7.69624C8.70416 9.06285 7.85283 10.1651 7.03062 10.8843C6.49742 11.3503 5.94853 11.6908 5.44669 11.8678C5.18457 11.9619 4.93813 12.0089 4.71858 12.0089ZM5.28091 5.2677C5.40959 5.34194 5.45351 5.50633 5.38159 5.63632C4.72518 6.82261 4.24205 8.07091 4.04871 9.09646C3.80003 10.4071 4.03975 11.1957 4.38477 11.3951C4.4699 11.4443 4.58192 11.4712 4.71858 11.4712C5.16441 11.4712 5.86564 11.1889 6.67664 10.481C7.45405 9.80217 8.26729 8.74473 9.02677 7.42964C9.7392 6.19521 10.2455 4.95405 10.4561 3.93469C10.7496 2.50759 10.4964 1.63386 10.1357 1.4255C9.95204 1.32021 9.65407 1.33365 9.29561 1.46583C8.88115 1.61817 8.41292 1.91614 7.94244 2.32612C7.15068 3.01498 6.34317 4.01883 5.65094 5.17159C5.5743 5.29922 5.40932 5.34302 5.28091 5.2677Z" fill="#D9D9D9"/>
<path d="M9.82199 12.0155C9.21261 12.0155 8.43969 11.6481 7.63317 10.9536C6.73255 10.1785 5.81624 9.02468 5.05004 7.70063C4.29729 6.40123 3.7596 5.0503 3.53333 3.89203C3.40115 3.21545 3.3765 2.59487 3.46164 2.09527C3.55573 1.55087 3.77752 1.16329 4.10686 0.972859C4.77448 0.585278 5.91034 0.984061 7.06636 2.01238C7.88633 2.74049 8.74662 3.84723 9.48818 5.12871C10.279 6.49532 10.81 7.78352 11.0206 8.85441C11.1572 9.54892 11.1796 10.1941 11.0833 10.7184C10.9802 11.2762 10.7473 11.6728 10.4112 11.8677C10.2432 11.9663 10.0438 12.0155 9.82199 12.0155ZM5.51604 7.43179C6.24191 8.68638 7.14253 9.82224 7.9849 10.5459C8.9953 11.4151 9.79734 11.6033 10.1446 11.4017C10.5053 11.1933 10.7697 10.3398 10.4963 8.95971C10.2947 7.94707 9.78614 6.71488 9.02442 5.39979C8.30975 4.16536 7.48754 3.10567 6.71014 2.41564C5.62133 1.44781 4.73863 1.2305 4.37794 1.43885C4.19423 1.54415 4.05757 1.81075 3.9926 2.18713C3.91867 2.62176 3.94107 3.17736 4.06205 3.78898C4.27712 4.88899 4.7924 6.18167 5.51604 7.43179Z" fill="#D9D9D9"/>
</svg>
