<svg width="232" height="232" viewBox="0 0 232 232" fill="none" xmlns="http://www.w3.org/2000/svg">
<mask id="mask0_352_40" style="mask-type:alpha" maskUnits="userSpaceOnUse" x="0" y="0" width="232" height="232">
<circle cx="116" cy="116" r="116" fill="#D9D9D9"/>
</mask>
<g mask="url(#mask0_352_40)">
<path d="M226.476 0H5.52381C2.46914 0 0 2.47467 0 5.52381V226.476C0 229.525 2.46914 232 5.52381 232H226.476C229.531 232 232 229.525 232 226.476V5.52381C232 2.47467 229.531 0 226.476 0ZM138.095 123.982H110.476V209.905H88.381V123.982H60.7619V104.952H138.095V123.982ZM144.287 205V182.032C144.287 182.032 156.832 191.488 171.884 191.488C186.937 191.488 186.357 181.645 186.357 180.297C186.357 166.013 143.707 166.013 143.707 134.367C143.707 91.3307 205.85 108.311 205.85 108.311L205.077 128.771C205.077 128.771 194.654 121.822 182.882 121.822C171.111 121.822 166.863 127.418 166.863 133.4C166.863 148.839 209.899 147.298 209.899 178.369C209.905 226.228 144.287 205 144.287 205Z" fill="#73F2A8"/>
</g>
</svg>
