<svg width="13" height="12" viewBox="0 0 13 12" fill="none" xmlns="http://www.w3.org/2000/svg">
<mask id="mask0_113_17" style="mask-type:alpha" maskUnits="userSpaceOnUse" x="0" y="0" width="13" height="12">
<rect x="0.512573" y="0.13623" width="12.4874" height="11.8638" rx="5.93188" fill="#D9D9D9"/>
</mask>
<g mask="url(#mask0_113_17)">
<path d="M-1.19073 5.25909V5.25909C-1.19073 8.98192 1.82721 11.9999 5.55004 11.9999H6.25874C9.98157 11.9999 12.9995 8.98192 12.9995 5.25909V5.25909C12.9995 1.53626 9.98158 -1.48169 6.25875 -1.48169H5.55005C1.82722 -1.48169 -1.19073 1.53626 -1.19073 5.25909V5.25909ZM10.2443 4.72093C10.2443 4.72036 10.2449 4.71994 10.2454 4.72007C10.5849 4.79512 10.8934 4.9639 11.1321 5.20516V5.20516C11.3884 5.45865 11.3196 5.74965 11.015 5.94251C10.8382 6.0545 10.6415 6.17602 10.4861 6.26751C10.4725 6.27614 10.418 6.22005 10.3579 6.13485C10.2897 6.02308 10.1928 5.92954 10.0763 5.86297C9.95975 5.79639 9.82737 5.75895 9.69149 5.75413C9.26124 5.72609 8.98425 5.94072 8.98652 6.29339C8.98296 6.3812 9.00412 6.46832 9.04782 6.54577C9.14205 6.73235 9.318 6.84344 9.86972 7.06993C10.8857 7.48516 11.3205 7.75911 11.5907 8.14846C11.8927 8.57987 11.9597 9.27659 11.7553 9.79213C11.5283 10.353 10.972 10.7337 10.1853 10.8599C9.826 10.899 9.46295 10.8953 9.10458 10.8491C8.55532 10.7631 8.04938 10.5125 7.66058 10.134C7.57754 10.0469 7.44442 9.87072 7.36263 9.74739C7.30699 9.6635 7.33251 9.58117 7.42219 9.53544V9.53544L7.94779 9.25934L8.22664 9.10584C8.29999 9.06547 8.39195 9.08649 8.44048 9.15472V9.15472C8.58417 9.35 8.76703 9.5164 8.97857 9.64437C9.43266 9.87086 10.0525 9.83958 10.359 9.5775C10.4619 9.48147 10.5261 9.35418 10.5404 9.21781C10.5547 9.08144 10.5183 8.94461 10.4373 8.83116C10.3238 8.68125 10.0968 8.55506 9.46218 8.2919C8.72996 7.99207 8.41437 7.80656 8.12602 7.51105C7.94601 7.31604 7.81311 7.08596 7.73664 6.83697C7.6796 6.5525 7.67117 6.26117 7.71167 5.97415C7.86265 5.30223 8.3928 4.83307 9.16702 4.69394C9.52522 4.65183 9.88805 4.66123 10.2433 4.72181C10.2438 4.7219 10.2443 4.72148 10.2443 4.72093V4.72093ZM6.91361 5.28497V5.28497C6.91361 5.58995 6.66638 5.83718 6.3614 5.83718H5.99237C5.48359 5.83718 5.07114 6.24963 5.07114 6.75841V10.1699C5.07114 10.5307 4.77864 10.8232 4.41782 10.8232V10.8232C4.05701 10.8232 3.7645 10.5307 3.7645 10.1699V6.7596C3.7645 6.24957 3.35104 5.8361 2.841 5.8361H2.45676C2.15894 5.8361 1.9175 5.59466 1.9175 5.29684V5.29684V5.29684C1.90633 4.93569 2.12722 4.73277 2.48854 4.73135C2.94839 4.72953 3.64992 4.72953 4.42861 4.72953H6.35131C6.65919 4.72953 6.90983 4.97712 6.91361 5.28497V5.28497Z" fill="#D9D9D9"/>
</g>
</svg>
