<svg width="77" height="9" viewBox="0 0 77 9" fill="none" xmlns="http://www.w3.org/2000/svg">
<path d="M4.53094 4.23663H7.28068V8.13302C6.85022 8.27403 6.41605 8.37793 5.97817 8.44473C5.54029 8.51152 5.04304 8.54492 4.48641 8.54492C3.6626 8.54492 2.96867 8.38164 2.40463 8.05509C1.84058 7.72111 1.41012 7.24983 1.11325 6.64126C0.823807 6.02526 0.679084 5.29793 0.679084 4.45928C0.679084 3.62805 0.842362 2.90815 1.16892 2.29957C1.49547 1.69099 1.96304 1.21971 2.57161 0.885738C3.18761 0.54434 3.92978 0.373641 4.79812 0.373641C5.24342 0.373641 5.66275 0.414461 6.0561 0.496099C6.45687 0.577738 6.82795 0.692774 7.16935 0.841208L6.79084 1.70955C6.50882 1.58338 6.18969 1.47576 5.83345 1.3867C5.48463 1.29764 5.12096 1.25311 4.74246 1.25311C4.11161 1.25311 3.56983 1.38299 3.11711 1.64275C2.66439 1.90251 2.31928 2.27359 2.08178 2.756C1.84429 3.23099 1.72554 3.79875 1.72554 4.45928C1.72554 5.09012 1.82574 5.65046 2.02612 6.14029C2.23393 6.6227 2.55677 7.00121 2.99465 7.27581C3.43253 7.54299 4.00771 7.67658 4.72019 7.67658C4.95769 7.67658 5.16549 7.66916 5.34361 7.65432C5.52916 7.63205 5.69614 7.60608 5.84458 7.57639C6.00043 7.5467 6.14516 7.51702 6.27875 7.48733V5.12723H4.53094V4.23663ZM14.033 2.46656V8.43359H13.2314L13.0867 7.64318H13.0422C12.916 7.85099 12.7527 8.02169 12.5524 8.15528C12.352 8.28887 12.133 8.38535 11.8955 8.44473C11.658 8.51152 11.4094 8.54492 11.1497 8.54492C10.6747 8.54492 10.2739 8.4707 9.94735 8.32227C9.62822 8.16641 9.38701 7.92892 9.22374 7.60979C9.06046 7.29065 8.97882 6.87875 8.97882 6.37408V2.46656H9.96962V6.30728C9.96962 6.78227 10.0772 7.13851 10.2925 7.376C10.5077 7.6135 10.8417 7.73224 11.2944 7.73224C11.7397 7.73224 12.0885 7.65061 12.3408 7.48733C12.6006 7.31663 12.7824 7.07171 12.8863 6.75258C12.9977 6.42603 13.0533 6.03268 13.0533 5.57253V2.46656H14.033ZM19.8126 6.78598C19.8126 7.17191 19.7161 7.49475 19.5232 7.75451C19.3302 8.01427 19.0556 8.21094 18.6993 8.34453C18.3431 8.47812 17.9201 8.54492 17.4302 8.54492C17.0146 8.54492 16.6547 8.51152 16.3504 8.44473C16.0535 8.37793 15.79 8.28516 15.56 8.16641V7.27581C15.7975 7.39456 16.0832 7.50588 16.4172 7.60979C16.7586 7.70627 17.1037 7.75451 17.4525 7.75451C17.9498 7.75451 18.3097 7.67658 18.5324 7.52073C18.755 7.35745 18.8663 7.14222 18.8663 6.87504C18.8663 6.72661 18.8255 6.59302 18.7439 6.47427C18.6622 6.35552 18.5138 6.23677 18.2986 6.11803C18.0908 5.99928 17.7902 5.86569 17.3968 5.71726C17.0109 5.56882 16.6806 5.42039 16.406 5.27196C16.1314 5.12352 15.9199 4.9454 15.7715 4.73759C15.6231 4.52979 15.5488 4.26261 15.5488 3.93605C15.5488 3.43138 15.7529 3.04174 16.1611 2.76714C16.5767 2.49253 17.1185 2.35523 17.7865 2.35523C18.1501 2.35523 18.4878 2.39234 18.7995 2.46656C19.1187 2.53335 19.4155 2.62983 19.6901 2.756L19.3562 3.53528C19.1929 3.46106 19.0185 3.39798 18.8329 3.34603C18.6548 3.28665 18.473 3.24212 18.2874 3.21244C18.1019 3.17533 17.9126 3.15677 17.7197 3.15677C17.3189 3.15677 17.0109 3.22357 16.7957 3.35716C16.5879 3.48333 16.484 3.65774 16.484 3.88039C16.484 4.04367 16.5322 4.18468 16.6287 4.30342C16.7252 4.41475 16.8847 4.52608 17.1074 4.6374C17.3375 4.7413 17.6418 4.86747 18.0203 5.01591C18.3988 5.15692 18.7216 5.30164 18.9888 5.45008C19.256 5.59851 19.4601 5.78034 19.6011 5.99557C19.7421 6.20338 19.8126 6.46685 19.8126 6.78598ZM23.2472 7.74338C23.3956 7.74338 23.5477 7.73224 23.7036 7.70998C23.8594 7.68029 23.9856 7.65061 24.0821 7.62092V8.3668C23.9782 8.41875 23.8298 8.45957 23.6368 8.48926C23.4438 8.52636 23.2583 8.54492 23.0802 8.54492C22.7685 8.54492 22.479 8.49297 22.2118 8.38906C21.9521 8.27774 21.7406 8.08849 21.5773 7.8213C21.414 7.55412 21.3324 7.17933 21.3324 6.69692V3.22357H20.4863V2.756L21.3435 2.36636L21.7331 1.09726H22.312V2.46656H24.0376V3.22357H22.312V6.67465C22.312 7.03832 22.3974 7.30921 22.5681 7.48733C22.7462 7.65803 22.9726 7.74338 23.2472 7.74338ZM27.5368 2.36636C28.2642 2.36636 28.8022 2.52593 29.1511 2.84506C29.4999 3.1642 29.6743 3.67258 29.6743 4.37022V8.43359H28.9618L28.7725 7.58752H28.728C28.5573 7.80275 28.3792 7.98458 28.1937 8.13302C28.0155 8.27403 27.8077 8.37793 27.5702 8.44473C27.3402 8.51152 27.0581 8.54492 26.7242 8.54492C26.3679 8.54492 26.0451 8.48183 25.7556 8.35567C25.4736 8.2295 25.251 8.03653 25.0877 7.77677C24.9244 7.50959 24.8428 7.17562 24.8428 6.77485C24.8428 6.18111 25.0765 5.72468 25.5441 5.40555C26.0117 5.07899 26.7316 4.90087 27.7038 4.87118L28.7169 4.83779V4.48155C28.7169 3.98429 28.6093 3.63918 28.394 3.44622C28.1788 3.25326 27.8745 3.15677 27.4812 3.15677C27.1695 3.15677 26.8726 3.20502 26.5906 3.3015C26.3085 3.39056 26.0451 3.49446 25.8002 3.61321L25.4996 2.87846C25.7593 2.73745 26.0673 2.6187 26.4236 2.52222C26.7798 2.41832 27.1509 2.36636 27.5368 2.36636ZM27.8263 5.55027C27.0841 5.57995 26.5683 5.6987 26.2789 5.90651C25.9968 6.11432 25.8558 6.40747 25.8558 6.78598C25.8558 7.11996 25.956 7.36487 26.1564 7.52073C26.3642 7.67658 26.6277 7.75451 26.9468 7.75451C27.4515 7.75451 27.8708 7.61721 28.2048 7.34261C28.5388 7.06058 28.7058 6.63012 28.7058 6.05123V5.51687L27.8263 5.55027ZM32.8309 8.43359L30.571 2.46656H31.6174L32.8865 5.98444C32.9459 6.14771 33.009 6.32955 33.0758 6.52993C33.1426 6.73032 33.202 6.92328 33.2539 7.10882C33.3059 7.28694 33.343 7.43909 33.3652 7.56526H33.4098C33.4395 7.43909 33.4803 7.28323 33.5322 7.09769C33.5916 6.91215 33.6547 6.71918 33.7215 6.5188C33.7957 6.31841 33.8588 6.14029 33.9107 5.98444L35.1798 2.46656H36.2263L33.9553 8.43359H32.8309ZM42.3582 5.43894C42.3582 5.9362 42.2914 6.37779 42.1578 6.76371C42.0317 7.14222 41.8461 7.46506 41.6012 7.73224C41.3637 7.99943 41.0706 8.20352 40.7218 8.34453C40.3804 8.47812 39.9981 8.54492 39.5751 8.54492C39.1818 8.54492 38.8181 8.47812 38.4841 8.34453C38.1501 8.20352 37.8607 7.99943 37.6158 7.73224C37.3709 7.46506 37.1779 7.14222 37.0369 6.76371C36.9033 6.37779 36.8365 5.9362 36.8365 5.43894C36.8365 4.77841 36.9478 4.22179 37.1705 3.76906C37.3931 3.30892 37.7123 2.9601 38.1279 2.72261C38.5435 2.47769 39.037 2.35523 39.6085 2.35523C40.1503 2.35523 40.6253 2.47769 41.0335 2.72261C41.4491 2.9601 41.7719 3.30892 42.002 3.76906C42.2395 4.22179 42.3582 4.77841 42.3582 5.43894ZM37.8496 5.43894C37.8496 5.90651 37.9089 6.3147 38.0277 6.66352C38.1538 7.00492 38.3468 7.26839 38.6066 7.45393C38.8663 7.63947 39.1966 7.73224 39.5974 7.73224C39.9981 7.73224 40.3284 7.63947 40.5882 7.45393C40.8479 7.26839 41.0372 7.00492 41.1559 6.66352C41.2821 6.3147 41.3452 5.90651 41.3452 5.43894C41.3452 4.96396 41.2821 4.55947 41.1559 4.2255C41.0298 3.89152 40.8368 3.63547 40.577 3.45735C40.3247 3.27181 39.9944 3.17904 39.5862 3.17904C38.9777 3.17904 38.5361 3.37942 38.2615 3.7802C37.9869 4.18097 37.8496 4.73388 37.8496 5.43894ZM50.557 4.38135C50.557 5.27195 50.3863 6.01783 50.0449 6.61899C49.7035 7.22015 49.2062 7.67287 48.5531 7.97716C47.9075 8.28145 47.1282 8.43359 46.2153 8.43359H43.9665V0.484967H46.4602C47.2915 0.484967 48.0114 0.6334 48.6199 0.930268C49.2359 1.22714 49.7109 1.66502 50.0449 2.24391C50.3863 2.81538 50.557 3.52786 50.557 4.38135ZM48.8092 4.42588C48.8092 3.83957 48.7238 3.35716 48.5531 2.97865C48.3824 2.60015 48.1264 2.32183 47.785 2.14371C47.451 1.95817 47.0391 1.8654 46.5493 1.8654H45.6475V7.04203H46.3712C47.195 7.04203 47.8073 6.82309 48.208 6.38521C48.6088 5.94733 48.8092 5.29422 48.8092 4.42588ZM54.5673 2.23277C55.3837 2.23277 56.0071 2.41089 56.4376 2.76714C56.8755 3.11596 57.0944 3.65403 57.0944 4.38135V8.43359H55.9366L55.6138 7.60979H55.5692C55.3985 7.82502 55.2204 8.00314 55.0349 8.14415C54.8568 8.28516 54.649 8.38535 54.4115 8.44473C54.1814 8.51152 53.8957 8.54492 53.5543 8.54492C53.198 8.54492 52.8752 8.47812 52.5857 8.34453C52.3037 8.20352 52.0811 7.992 51.9178 7.70998C51.7545 7.42053 51.6729 7.05687 51.6729 6.61899C51.6729 5.9733 51.8992 5.49832 52.3519 5.19403C52.8047 4.88232 53.4837 4.71162 54.3892 4.68193L55.4468 4.64853V4.38135C55.4468 4.06222 55.3614 3.82844 55.1907 3.68C55.0275 3.53157 54.7974 3.45735 54.5005 3.45735C54.2037 3.45735 53.9142 3.50188 53.6322 3.59094C53.3502 3.67258 53.0681 3.77649 52.7861 3.90265L52.2406 2.77827C52.5672 2.60757 52.9271 2.47398 53.3205 2.3775C53.7212 2.28101 54.1369 2.23277 54.5673 2.23277ZM54.8011 5.63933C54.2667 5.65417 53.8957 5.75065 53.6878 5.92877C53.48 6.10689 53.3761 6.34068 53.3761 6.63012C53.3761 6.88246 53.4504 7.06429 53.5988 7.17562C53.7472 7.27952 53.9402 7.33147 54.1777 7.33147C54.5339 7.33147 54.8345 7.22757 55.0794 7.01976C55.3243 6.80453 55.4468 6.50396 55.4468 6.11803V5.61706L54.8011 5.63933ZM62.2434 2.24391C62.8965 2.24391 63.4197 2.42203 63.8131 2.77827C64.2064 3.12709 64.4031 3.69114 64.4031 4.47041V8.43359H62.7443V4.88232C62.7443 4.44444 62.6664 4.11788 62.5105 3.90265C62.3547 3.68 62.1061 3.56868 61.7647 3.56868C61.26 3.56868 60.9149 3.74309 60.7293 4.09191C60.5438 4.4333 60.451 4.92685 60.451 5.57253V8.43359H58.7923V2.35523H60.0614L60.284 3.13451H60.3731C60.5067 2.9267 60.67 2.75971 60.8629 2.63355C61.0559 2.49995 61.2711 2.40347 61.5086 2.3441C61.7461 2.2773 61.991 2.24391 62.2434 2.24391ZM68.6694 7.22015C68.8549 7.22015 69.033 7.20159 69.2037 7.16449C69.3744 7.12738 69.5451 7.08285 69.7158 7.03089V8.26661C69.5377 8.34082 69.315 8.40391 69.0479 8.45586C68.7881 8.51523 68.5024 8.54492 68.1907 8.54492C67.827 8.54492 67.5004 8.48555 67.211 8.3668C66.929 8.24805 66.7026 8.04396 66.5319 7.75451C66.3686 7.45764 66.287 7.04945 66.287 6.52993V3.60208H65.4966V2.90073L66.4095 2.3441L66.8882 1.06386H67.9457V2.35523H69.649V3.60208H67.9457V6.52993C67.9457 6.76 68.0125 6.93441 68.1461 7.05316C68.2797 7.16449 68.4541 7.22015 68.6694 7.22015ZM73.4407 2.24391C74.0047 2.24391 74.4872 2.35152 74.8879 2.56675C75.2961 2.78198 75.6115 3.09369 75.8342 3.50188C76.0568 3.91008 76.1682 4.41104 76.1682 5.00477V5.80632H72.2495C72.2644 6.27388 72.4017 6.64126 72.6614 6.90844C72.9286 7.17562 73.296 7.30921 73.7635 7.30921C74.1569 7.30921 74.5131 7.2721 74.8323 7.19788C75.1514 7.11624 75.4817 6.99379 75.8231 6.83051V8.11075C75.5262 8.25918 75.2108 8.3668 74.8768 8.43359C74.5502 8.50781 74.1532 8.54492 73.6856 8.54492C73.077 8.54492 72.539 8.43359 72.0714 8.21094C71.6038 7.98087 71.2365 7.63576 70.9693 7.17562C70.7021 6.71547 70.5685 6.13658 70.5685 5.43894C70.5685 4.72646 70.6872 4.13644 70.9247 3.66887C71.1697 3.19388 71.5073 2.83764 71.9378 2.60015C72.3683 2.36265 72.8692 2.24391 73.4407 2.24391ZM73.4518 3.42395C73.1327 3.42395 72.8655 3.52786 72.6503 3.73567C72.4425 3.94347 72.32 4.26632 72.2829 4.7042H74.6096C74.6096 4.45928 74.5651 4.24034 74.476 4.04738C74.3944 3.85441 74.2682 3.70227 74.0975 3.59094C73.9268 3.47962 73.7116 3.42395 73.4518 3.42395Z" fill="white"/>
</svg>
